<svg xmlns="http://www.w3.org/2000/svg" viewBox="0 0 966.67 761.96"><title>chat</title><g style="isolation:isolate"><g id="Layer_1" data-name="Layer 1"><path d="M666.21,212.45l-5.86,7.27c-6.43,8.25-11.64,21.89-11.64,30.47v44.89c0,8.58,7.79,9.85,14.22,1.6l3.32-9.3A42.24,42.24,0,0,0,675,261.12l2.58-44.89C677.58,207.65,672.65,204.2,666.21,212.45Z" transform="translate(-15.42 -104.5)" fill="#21170e"/><path d="M665.94,215.65l-3,4.07c-6.43,8.25-11.64,21.89-11.64,30.47v44.89c0,8.58,5.21,8.84,11.64.58l5.9-8.28a42.23,42.23,0,0,0,8.74-26.26V216.23C677.58,207.65,672.37,207.4,665.94,215.65Z" transform="translate(-15.42 -104.5)" fill="#342e29"/><path d="M632.05,353.74l23.29-28.9a41.7,41.7,0,0,0,9.23-26.21l-.13-92.69a9.14,9.14,0,0,0-14.93-7.07l-27,22.08,2.33,5.28,26.4-22.65a5.63,5.63,0,0,1,9.29,4.26v88.92a41.69,41.69,0,0,1-9.42,26.39l-21.68,26.5Z" transform="translate(-15.42 -104.5)" fill="#312821"/><path d="M937.3,717.55l-63.54,8.31L328.32,411l-77.38,44.46-20.7-12.19L85.93,546.75l-4.7,14.19-46.5,44.54L15.42,662.32l164.5,104.29,177.85,6,17.57,8.88H251.73l17.88,11H397.19l93.61,47.32s34,21.88,70,23.21c0,0,122.21,4.28,128.23,3.25s50.51-22.36,64.4-31.23,7.78-16.61,7.78-16.61l-5.2-.2,5.2-3,33,13.12L879,781.47l-25.14-19.42,14.8,2.63c14.8,2.63,36.57-4.57,68.63-22.12S937.3,717.55,937.3,717.55Z" transform="translate(-15.42 -104.5)" fill="#ab9489" style="mix-blend-mode:multiply"/><path d="M799.54,570.6l-4.57-.4,1,11.67,4.88,3.92.27,3.12.81,3.29-4.07.94,3,12.33,5,2.78.8,3.3,1.3,3.32-3.38,2.23,4.85,12.46,4.85,1.53,1.3,3.32,1.73,3.21-2.55,3.43,6.5,12,4.51.21,1.74,3.21,2.1,3L828,663.94,835.83,675l4-1.13,2.1,3,2.37,2.57-.59,5.33,8.87,9.65,3.27-2.41,2.37,2.58,2.54,2.08.44,5.94,9.5,7.81,2.42-3.59,2.54,2.08,2.59,1.5,1.47,6.3,8.57,4.95,13,30.6,61-35.27-.74-1.83,6.07-3.51,4.86-6.84-2.2-4,5.88-3.4,3-8.86-4.06-5.64v0l5.94-3.43,1-10.5-4.57-4.88.27-2.81-.27-3.11,4.57.4-1-11.67L976.2,643l-.27-3.12-.8-3.29,4.06-.94-3-12.33-5-2.78-.8-3.3-1.3-3.32,3.39-2.23-4.86-12.46-4.85-1.53-1.3-3.32-1.73-3.21,2.55-3.43-6.5-12-4.51-.21-1.74-3.21-2.09-3,1.6-4.48-7.85-11.08-4,1.13-2.1-3-2.37-2.57.59-5.33-8.87-9.65-3.27,2.41-2.37-2.58-2.53-2.08-.45-5.94-9.5-7.81L904,522l-2.54-2.08-2.59-1.5-1.47-6.3-9.71-5.61-1.46,4.61-2.6-1.5-2.53-.84-2.42-6.38-9.5-3.17-.45,5.42-2.54-.84-2.36-.16-3.28-6.18-8.87-.6-7.36,10.69-2.37-.16-2.1.54,4-10.4L828,504.18l1.61,6.33-2.1.54-1.74,1.21-4.51-5-6.5,4.53,2.55,6.37-1.73,1.21-1.3,1.83-4.85-4.07L804.56,524l3.38,6.14-1.3,1.83-.8,2.37-5-3-3,8.86,4.07,5.64-.81,2.37-.27,2.8L796,549.3l-1,10.5,4.57,4.88-.27,2.81Zm93.93,148.6,1.2.4-4.78,1.19,1-3.09Z" transform="translate(-15.42 -104.5)" fill="#47141a"/><polygon points="916 558.8 963.77 531.13 953.11 512.52 902.79 527.79 916 558.8" fill="#47141a"/><polygon points="925.81 449.25 893.57 458.85 878.03 476.92 885.89 488 901.08 470.13 933.66 460.33 925.81 449.25" fill="#502026"/><polygon points="909.08 429.86 876.85 439.45 861.31 457.53 870.18 467.18 885.37 449.31 917.96 439.51 909.08 429.86" fill="#502026"/><polygon points="890.96 413.87 858.72 423.46 843.19 441.53 852.69 449.33 867.87 431.46 900.46 421.67 890.96 413.87" fill="#502026"/><polygon points="940.4 471.19 908.19 480.77 892.63 498.86 899.13 510.89 914.96 492.64 946.9 483.22 940.4 471.19" fill="#502026"/><polygon points="872.23 401.96 824.46 429.63 833.96 437.43 881.73 409.76 872.23 401.96" fill="#47141a"/><polygon points="872.23 401.96 840 411.56 824.46 429.63 834.17 435.24 849.36 417.37 881.94 407.57 872.23 401.96" fill="#502026"/><polygon points="853.72 394.68 805.94 422.35 815.44 430.15 863.22 402.48 853.72 394.68" fill="#47141a"/><polygon points="836.22 392.32 788.45 419.99 797.95 427.79 837.77 404.8 836.22 392.32" fill="#47141a"/><polygon points="812.56 399.69 772.74 422.68 782.24 430.48 822.06 407.49 812.56 399.69" fill="#47141a"/><polygon points="853.72 394.68 821.48 404.27 805.94 422.35 815.44 425.51 830.63 407.64 863.22 397.85 853.72 394.68" fill="#502026"/><polygon points="793.87 407.92 759.5 430.28 769 438.08 811.58 401.22 793.87 407.92" fill="#47141a"/><polygon points="793.99 412.63 754.17 435.62 763.67 443.42 803.49 420.43 793.99 412.63" fill="#47141a"/><polygon points="836.22 392.32 803.99 401.92 788.45 419.99 797.32 420.58 812.51 402.71 845.09 392.92 836.22 392.32" fill="#502026"/><polygon points="812.56 399.69 787.44 409.7 772.74 422.68 780.6 420.66 794.95 407.89 828.37 392.99 812.56 399.69" fill="#502026"/><polygon points="785.45 426.85 745.63 449.84 755.13 457.64 794.95 434.65 785.45 426.85" fill="#47141a"/><polygon points="780.57 444.8 740.75 467.79 750.24 475.59 790.06 452.61 780.57 444.8" fill="#47141a"/><polygon points="779.55 465.7 739.73 488.69 749.23 496.49 789.05 473.5 779.55 465.7" fill="#47141a"/><polygon points="782.45 488.64 742.63 511.63 752.13 519.43 791.95 496.44 782.45 488.64" fill="#47141a"/><polygon points="845.76 598.11 805.94 621.1 815.44 628.9 855.26 605.91 845.76 598.11" fill="#47141a"/><polygon points="864.49 610 824.67 633 834.17 640.8 873.99 617.81 864.49 610" fill="#47141a"/><polygon points="883.01 617.29 843.19 640.28 852.69 648.08 892.51 625.09 883.01 617.29" fill="#47141a"/><polygon points="900.5 619.64 860.68 642.63 870.18 650.43 910 627.45 900.5 619.64" fill="#47141a"/><polygon points="918.9 581.73 966.67 554.07 948.05 540.13 905.69 550.72 918.9 581.73" fill="#47141a"/><polygon points="960.77 518.8 931.64 526.97 913 546.47 916 558.8 934.91 539.14 963.77 531.13 960.77 518.8" fill="#502026"/><polygon points="952.23 494.71 923.1 502.88 904.46 522.38 909.31 534.83 928.23 515.17 957.09 507.17 952.23 494.71" fill="#502026"/><polygon points="965.66 542.4 939.92 549.42 917.88 570.07 918.9 581.73 941.21 560.93 966.67 554.07 965.66 542.4" fill="#502026"/><polygon points="966.67 564.47 939.86 573.65 918.9 592.14 917.88 602.63 939.12 583.99 965.66 574.97 966.67 564.47" fill="#502026"/><polygon points="963.77 584.05 937.83 593.13 916 611.72 913 620.59 935.1 601.84 960.77 592.92 963.77 584.05" fill="#502026"/><polygon points="957.09 600.3 931.14 609.37 909.31 627.96 904.46 634.81 926.56 616.06 952.23 607.14 957.09 600.3" fill="#502026"/><polygon points="917.88 570.07 913.01 566.14 912.74 563.03 911.93 559.74 916 558.8 913 546.47 908.03 543.68 907.23 540.39 905.93 537.07 909.31 534.83 904.46 522.38 899.61 520.85 898.31 517.53 896.58 514.31 899.13 510.89 892.63 498.86 888.12 498.65 886.38 495.44 884.28 492.48 885.89 488 878.03 476.92 874.05 478.04 871.96 475.08 869.59 472.5 870.18 467.18 861.31 457.53 858.04 459.94 855.67 457.36 853.13 455.27 852.69 449.33 843.19 441.53 840.77 445.12 838.23 443.04 835.64 441.54 834.17 435.24 824.46 429.63 822.99 434.24 820.4 432.74 817.86 431.9 815.44 425.51 805.94 422.35 805.5 427.77 802.96 426.93 800.59 426.77 797.32 420.58 788.45 419.99 789.04 426 786.67 425.84 784.58 426.38 780.6 420.66 772.74 422.68 774.35 429 772.25 429.54 770.51 430.75 766 425.75 759.5 430.28 762.05 436.65 760.32 437.86 759.02 439.69 754.17 435.62 749.32 442.46 752.7 448.6 751.4 450.43 750.6 452.8 745.63 449.84 742.63 458.7 746.7 464.34 745.9 466.7 745.63 469.51 740.75 467.79 739.73 478.29 744.3 483.17 744.03 485.98 744.3 489.09 739.73 488.69 740.75 500.36 745.63 504.28 745.9 507.4 746.7 510.69 742.63 511.63 745.63 523.96 750.6 526.74 751.4 530.04 752.7 533.36 749.32 535.59 754.17 548.05 759.02 549.58 760.32 552.9 762.05 556.11 759.5 559.54 766 571.57 770.51 571.78 772.25 574.99 774.35 577.95 772.74 582.42 780.6 593.51 784.58 592.38 786.67 595.35 789.04 597.92 788.45 603.25 797.32 612.9 800.59 610.49 802.96 613.07 805.5 615.15 805.94 621.1 815.44 628.9 817.86 625.31 820.4 627.39 822.99 628.89 824.46 635.19 834.17 640.8 835.64 636.19 838.23 637.69 840.77 638.53 843.19 644.91 852.69 648.08 853.13 642.66 855.67 643.5 858.04 643.66 861.31 649.85 870.18 650.43 869.59 644.43 871.96 644.58 874.05 644.04 878.03 649.77 885.89 647.75 884.28 641.42 886.38 640.89 888.12 639.68 892.63 644.68 899.13 640.15 896.58 633.78 898.31 632.57 899.61 630.74 904.46 634.81 909.31 627.96 905.93 621.83 907.23 620 908.03 617.63 913 620.59 916 611.72 911.93 606.09 912.74 603.72 913.01 600.92 917.88 602.63 918.9 592.14 914.33 587.25 914.6 584.45 914.33 581.34 918.9 581.73 917.88 570.07" fill="#673940"/><ellipse cx="844.73" cy="639.71" rx="62" ry="107.39" transform="matrix(0.86, -0.5, 0.5, 0.86, -222.8, 409.27)" fill="#5d2a30"/><path d="M909.36,680.14c0,42.21-29.82,59.21-66.6,38s-66.59-72.66-66.59-114.87,29.81-59.2,66.59-38S909.36,637.94,909.36,680.14Z" transform="translate(-15.42 -104.5)" fill="#673940"/><ellipse cx="842.76" cy="641.69" rx="42.98" ry="74.44" transform="matrix(0.86, -0.5, 0.5, 0.86, -224.07, 408.55)" fill="#5d2a30"/><path d="M886.43,663.78c0,26.43-18.67,37.07-41.7,23.77S803,642.06,803,615.64s18.67-37.06,41.69-23.77S886.43,637.36,886.43,663.78Z" transform="translate(-15.42 -104.5)" fill="#e89f23"/><path d="M884.45,661.1v.39c0,24.4-17.23,34.22-38.43,21.9s-38.44-41.86-38.44-66.27S824.81,583,846,595.22c.46.31,1,.62,1.48.93a57.42,57.42,0,0,1,9.66,7.49,81.7,81.7,0,0,1,7.25,7.56,94.4,94.4,0,0,1,7.33,10.13c1.33,2.26,2.65,4.6,4,7v.08a86.29,86.29,0,0,1,5,12.08,60.53,60.53,0,0,1,2.65,10.06A55.06,55.06,0,0,1,884.45,661.1Z" transform="translate(-15.42 -104.5)" fill="#e48f25"/><path d="M855,678.83c-21.22-12.25-38.43-41.93-38.43-66.28,0-10.08,3-17.62,7.94-22.18-10.22,2-16.94,11.56-16.94,26.78,0,24.35,17.2,54,38.42,66.28,12.44,7.18,23.46,6.73,30.48.28C870.37,684.92,863,683.42,855,678.83Z" transform="translate(-15.42 -104.5)" fill="#bf5627"/><path d="M868.67,642.78c0,9.41-6.64,13.19-14.84,8.46S839,635.06,839,625.66s6.64-13.19,14.83-8.46S868.67,633.38,868.67,642.78Z" transform="translate(-15.42 -104.5)" fill="#47141a"/><path d="M864.24,642.06c0,7.62-5.38,10.69-12,6.85s-12-13.11-12-20.72,5.38-10.69,12-6.86S864.24,634.45,864.24,642.06Z" transform="translate(-15.42 -104.5)" fill="#bf5627"/><path d="M860,642c0,5.75-4.06,8.06-9.07,5.17s-9.06-9.89-9.06-15.64,4.06-8.06,9.06-5.17S860,636.23,860,642Z" transform="translate(-15.42 -104.5)" fill="#e89f23"/><path d="M837.82,605.15c0,3.17-2.23,4.44-5,2.85a11,11,0,0,1-5-8.62c0-3.16,2.24-4.44,5-2.84A11,11,0,0,1,837.82,605.15Z" transform="translate(-15.42 -104.5)" fill="#bf5627"/><path d="M831.35,620.39c0,3.17-2.23,4.45-5,2.85a11,11,0,0,1-5-8.61c0-3.17,2.24-4.44,5-2.85A11,11,0,0,1,831.35,620.39Z" transform="translate(-15.42 -104.5)" fill="#bf5627"/><path d="M834.87,639.63c0,3.17-2.23,4.44-5,2.85a11,11,0,0,1-5-8.62c0-3.16,2.24-4.44,5-2.85A11,11,0,0,1,834.87,639.63Z" transform="translate(-15.42 -104.5)" fill="#bf5627"/><path d="M846.41,657.7c0,3.16-2.24,4.44-5,2.84a11,11,0,0,1-5-8.61c0-3.17,2.24-4.44,5-2.85A11,11,0,0,1,846.41,657.7Z" transform="translate(-15.42 -104.5)" fill="#bf5627"/><path d="M861,670.53c0,3.17-2.23,4.44-5,2.85a11,11,0,0,1-5-8.62c0-3.16,2.24-4.44,5-2.84A11,11,0,0,1,861,670.53Z" transform="translate(-15.42 -104.5)" fill="#bf5627"/><path d="M877.52,671.79c0,3.16-2.24,4.44-5,2.85a11,11,0,0,1-5-8.62c0-3.17,2.24-4.44,5-2.85A11,11,0,0,1,877.52,671.79Z" transform="translate(-15.42 -104.5)" fill="#bf5627"/><path d="M884.45,661.1a3.92,3.92,0,0,1-3-.55,11.18,11.18,0,0,1-5-8.65c0-3.12,2.26-4.45,5-2.81a7,7,0,0,1,1.87,1.48A55.06,55.06,0,0,1,884.45,661.1Z" transform="translate(-15.42 -104.5)" fill="#bf5627"/><path d="M880.71,640.51a4.51,4.51,0,0,1-1.25-.54,11,11,0,0,1-5-8.66,3.09,3.09,0,0,1,1.25-2.88A86.29,86.29,0,0,1,880.71,640.51Z" transform="translate(-15.42 -104.5)" fill="#bf5627"/><path d="M871.74,621.33a4,4,0,0,1-2.49-.62,11,11,0,0,1-5-8.65,1.58,1.58,0,0,1,.15-.86A94.4,94.4,0,0,1,871.74,621.33Z" transform="translate(-15.42 -104.5)" fill="#bf5627"/><path d="M857.16,603.64c-.15,2.8-2.34,4-4.91,2.41a10.85,10.85,0,0,1-5-8.57,3.58,3.58,0,0,1,.24-1.33A57.42,57.42,0,0,1,857.16,603.64Z" transform="translate(-15.42 -104.5)" fill="#bf5627"/><path d="M755.82,583.67s1.36-49.3,6.63-62.47c3.16-8,21.16-18.58,36.22-26,6.1-5.62,13.17-11.2,16.42-11.37,23.7-1.23,61.24,28.57,63.79,30.64a.55.55,0,0,1,.13.09l25.77-14.89-.66-8.34s-39.73-25.5-62.78-28.31c-7.16-.88-15.76,2-24.28,6.45-18.7,9.79-38.81,21.55-40.34,23.93l-.05,0c-.65,1.1-15.58,16.42-18.65,29.81C751.83,550,755.82,583.67,755.82,583.67Z" transform="translate(-15.42 -104.5)" fill="#57c6d6"/><path d="M747.74,578.18l8.08,5.49s1.36-49.3,6.63-62.47c3.16-8,21.16-18.58,36.22-26,9.88-4.83,18.44-8.35,20.76-8.83,5.67-1.18,56.33,26.43,59.45,28.1a.55.55,0,0,1,.13.09l-.66-8.34s-39.73-25.51-62.78-28.32c-11.37-1.41-26.34,6.63-38.85,15.5l-.05,0c-12.77,9-22.91,19-23.92,20.63C750.77,517.38,747.74,578.18,747.74,578.18Z" transform="translate(-15.42 -104.5)" fill="#1b8ece"/><path d="M884.56,616.23v39.66L764.37,725.28,662.5,583.65l-64.34-43.34L572,483.07l-47.18-42.56L427.08,332.89l-40-32.05-8.1-41.31,29.07-7,79.76,39.83,160.91,136.6S884.56,576.56,884.56,616.23Z" transform="translate(-15.42 -104.5)" fill="#331215"/><polygon points="827.6 545.24 864.83 568.84 861.65 588.15 832.64 604.97 798.59 562.05 827.6 545.24" fill="#473d35"/><polygon points="798.59 562.05 835.82 585.65 832.64 604.97 796.38 584.05 798.59 562.05" fill="#23180f"/><polygon points="449.19 19.37 329 88.76 459.31 171.5 490.04 343.43 555.12 326.48 627.07 369.89 624.13 255.02 597.84 101.91 462.21 23.61 449.19 19.37" fill="#1cbfd6"/><polygon points="596.24 123.08 617.6 248.09 507.31 311.69 485.49 188.1 596.24 123.08" fill="#673940"/><polygon points="608.05 241.2 588.67 140.02 538.17 169.18 528.54 260.31 574.79 234.48 598.73 234.48 608.05 241.2" fill="#7f7f7f"/><polygon points="617.6 248.09 598.73 234.48 574.79 234.48 500.96 275.72 507.31 311.69 617.6 248.09" fill="#794c52"/><polygon points="880.28 519.36 871.07 419.99 861.22 404.09 803.21 359.3 720.92 305.23 617.67 254.73 617.67 273.69 623.71 365.76 690.11 400.45 727.6 442.15 821.82 492.9 853.28 500.86 880.28 519.36" fill="#3db1d0"/><polygon points="617.67 254.73 497.48 324.12 760.09 588.75 880.28 519.36 729.44 330.72 617.67 254.73" fill="#3db1d0"/><polygon points="880.28 519.36 878.83 503.64 871.78 427.66 871.07 419.99 750.88 489.38 760.09 588.75 819.46 572.31 849.93 554.71 880.28 519.36" fill="#1cbfd6"/><polygon points="878.83 503.64 877.37 487.93 870.32 411.94 869.61 404.27 749.42 473.66 758.64 573.03 818 556.59 848.48 538.99 878.83 503.64" fill="#1cbfd6"/><polygon points="871.06 420.03 840.75 455.35 804.84 475.81 750.95 489.37 750.95 489.28 749.06 468.91 861.2 404.09 871.06 420.03" fill="#6fccdd"/><path d="M764.37,685.62v39.66l-79.56,17L542.31,653,478,609.7l-26.21-57.24-47.19-42.55L306.89,402.28l-40-32-8.1-41.31,29.07-7,79.75,39.83,160.91,136.6S764.37,646,764.37,685.62Z" transform="translate(-15.42 -104.5)" fill="#331215"/><polygon points="549.77 509.25 511.96 487.42 493.22 479.51 490.04 522.89 526.89 548.54 552.63 558.29 549.77 509.25" fill="#5d2a30"/><path d="M224.33,434.35l-5.48-.48,1.22,14,5.85,4.7.32,3.73,1,3.95-4.87,1.12,3.59,14.78,6,3.34,1,3.95,1.55,4-4.06,2.67L236.16,505l5.82,1.83,1.55,4,2.08,3.85-3.06,4.11,7.79,14.42,5.41.25,2.08,3.85,2.52,3.55-1.93,5.36,9.42,13.29,4.77-1.35,2.51,3.55,2.84,3.09-.71,6.38,10.63,11.57,3.93-2.88,2.84,3.09,3,2.49.53,7.12,11.39,9.36,2.9-4.3,3,2.49,3.11,1.8,1.76,7.55,10.28,5.94,15.62,36.68,63.6-36.67-.88-2.2,7.27-4.2,5.82-8.21-2.63-4.77,7.05-4.07,3.6-10.63-4.88-6.75v0l7.13-4.11,1.22-12.59L428.14,552l.33-3.36-.33-3.73,5.49.47-1.22-14-5.85-4.7-.33-3.73-1-4,4.88-1.12-3.6-14.78-6-3.34-1-4-1.55-4,4.05-2.68-5.82-14.93-5.81-1.83-1.55-4-2.09-3.85,3.06-4.1-7.79-14.43-5.41-.25L394.64,442l-2.51-3.54,1.93-5.37-9.42-13.29-4.77,1.35-2.52-3.54-2.84-3.09.72-6.39-10.64-11.57-3.92,2.89-2.84-3.09-3-2.5-.54-7.12-11.38-9.35-2.91,4.3-3-2.5-3.1-1.79-1.76-7.56-11.64-6.72-1.76,5.52-3.11-1.79-3-1-2.9-7.66-11.39-3.79-.53,6.5-3-1-2.84-.19-3.93-7.42-10.63-.7.71,7.2-2.84-.19-2.51.65-4.77-6.86-9.42,2.41,1.93,7.59-2.52.64-2.08,1.46-5.41-6-7.79,5.43,3.06,7.63-2.08,1.45L242,375.12l-5.82-4.87-5.82,8.2,4.06,7.36L232.85,388l-1,2.84-6-3.54-3.59,10.62,4.87,6.76-1,2.83-.32,3.36-5.85-2.05-1.22,12.58,5.48,5.85-.32,3.36ZM336.92,612.47l1.45.48-5.73,1.44,1.18-3.71Z" transform="translate(-15.42 -104.5)" fill="#47141a"/><polygon points="367 440.97 414.73 413.41 401.94 391.1 351.16 403.79 367 440.97" fill="#47141a"/><polygon points="369.22 315.25 340.11 321.15 321.49 342.81 330.9 356.1 349.11 334.68 378.64 328.54 369.22 315.25" fill="#502026"/><polygon points="349.17 292.01 320.06 297.91 301.44 319.57 312.07 331.14 330.28 309.72 359.81 303.58 349.17 292.01" fill="#502026"/><polygon points="327.45 272.84 298.34 278.73 279.72 300.4 291.1 309.75 309.31 288.33 338.83 282.19 327.45 272.84" fill="#502026"/><polygon points="386.71 341.55 357.64 347.43 338.98 369.11 346.77 383.54 365.75 361.66 394.5 355.98 386.71 341.55" fill="#502026"/><polygon points="400.89 369.75 373.36 375.22 353.16 397.31 358.98 412.24 379.5 389.96 406.71 384.68 400.89 369.75" fill="#502026"/><polygon points="305 258.57 257.26 286.13 268.65 295.48 316.38 267.92 305 258.57" fill="#47141a"/><polygon points="305 258.57 275.89 264.47 257.26 286.13 268.91 292.85 287.11 271.43 316.64 265.29 305 258.57" fill="#502026"/><polygon points="282.8 249.84 235.07 277.4 246.46 286.75 294.19 259.19 282.8 249.84" fill="#47141a"/><polygon points="261.83 247.02 214.1 274.58 225.49 283.93 273.22 256.37 261.83 247.02" fill="#47141a"/><polygon points="243 250.23 195.27 277.79 206.65 287.14 254.39 259.58 243 250.23" fill="#47141a"/><polygon points="282.8 249.84 253.69 255.73 235.07 277.4 246.46 281.19 264.66 259.77 294.19 253.63 282.8 249.84" fill="#502026"/><polygon points="227.13 259.35 179.4 286.9 190.79 296.25 238.52 268.7 227.13 259.35" fill="#47141a"/><polygon points="220.75 265.75 173.01 293.31 184.4 302.66 232.13 275.1 220.75 265.75" fill="#47141a"/><polygon points="261.83 247.02 232.72 252.91 214.1 274.58 224.73 275.28 242.94 253.86 272.47 247.72 261.83 247.02" fill="#502026"/><polygon points="243 250.23 212.53 264.98 195.27 277.79 204.69 275.38 221.52 262.81 252.42 247.82 243 250.23" fill="#502026"/><polygon points="210.5 282.8 162.77 310.36 174.16 319.71 221.89 292.15 210.5 282.8" fill="#47141a"/><polygon points="204.65 304.32 156.91 331.88 168.3 341.23 216.03 313.67 204.65 304.32" fill="#47141a"/><polygon points="203.43 329.37 155.7 356.93 167.08 366.28 214.82 338.72 203.43 329.37" fill="#47141a"/><polygon points="206.91 356.86 159.18 384.42 170.56 393.77 218.29 366.21 206.91 356.86" fill="#47141a"/><polygon points="282.8 488.08 235.07 515.64 246.46 524.99 294.19 497.44 282.8 488.08" fill="#47141a"/><polygon points="305.25 502.35 257.52 529.91 268.91 539.26 316.64 511.7 305.25 502.35" fill="#47141a"/><polygon points="327.45 511.08 279.72 538.64 291.1 547.99 338.83 520.43 327.45 511.08" fill="#47141a"/><polygon points="348.42 513.9 300.69 541.46 312.07 550.81 359.81 523.25 348.42 513.9" fill="#47141a"/><polygon points="370.47 468.46 418.21 440.9 405.42 418.59 354.64 431.28 370.47 468.46" fill="#47141a"/><polygon points="411.13 398.63 385.75 402.81 363.4 426.19 367 440.97 389.67 417.4 414.73 413.41 411.13 398.63" fill="#502026"/><polygon points="416.99 426.91 395.67 429.73 369.26 454.47 370.47 468.46 397.21 443.52 418.21 440.9 416.99 426.91" fill="#502026"/><polygon points="418.21 453.37 395.6 458.77 370.47 480.93 369.26 493.51 394.71 471.17 416.99 465.96 418.21 453.37" fill="#502026"/><polygon points="414.73 476.85 393.17 482.12 367 504.41 363.4 515.03 389.89 492.56 411.13 487.48 414.73 476.85" fill="#502026"/><polygon points="406.71 496.32 385.15 501.59 358.98 523.88 353.16 532.09 379.65 509.61 400.89 504.53 406.71 496.32" fill="#502026"/><polygon points="369.26 454.47 363.41 449.77 363.08 446.04 362.12 442.09 367 440.97 363.4 426.19 357.44 422.85 356.48 418.9 354.93 414.92 358.98 412.24 353.16 397.31 347.35 395.48 345.79 391.49 343.71 387.64 346.77 383.54 338.98 369.11 333.57 368.86 331.49 365.01 328.98 361.46 330.9 356.1 321.49 342.81 316.72 344.16 314.2 340.61 311.36 337.52 312.07 331.14 301.44 319.57 297.52 322.46 294.68 319.37 291.64 316.87 291.1 309.75 279.72 300.4 276.81 304.69 273.77 302.2 270.66 300.4 268.91 292.85 257.27 286.13 255.51 291.65 252.4 289.86 249.36 288.85 246.46 281.19 235.07 277.4 234.54 283.9 231.5 282.89 228.66 282.7 224.73 275.28 214.1 274.58 214.81 281.78 211.97 281.59 209.46 282.24 204.69 275.38 195.27 277.79 197.19 285.38 194.68 286.02 192.6 287.47 187.19 281.48 179.4 286.9 182.46 294.54 180.38 295.99 178.83 298.18 173.01 293.31 167.19 301.51 171.25 308.87 169.69 311.06 168.73 313.9 162.77 310.36 159.18 320.98 164.05 327.73 163.09 330.57 162.76 333.93 156.91 331.88 155.7 344.46 161.18 350.31 160.85 353.67 161.18 357.41 155.7 356.93 156.91 370.92 162.76 375.62 163.09 379.35 164.05 383.3 159.18 384.42 162.77 399.2 168.73 402.54 169.69 406.49 171.25 410.48 167.19 413.15 173.01 428.08 178.83 429.91 180.38 433.9 182.46 437.75 179.4 441.86 187.19 456.28 192.6 456.53 194.68 460.38 197.19 463.93 195.27 469.29 204.69 482.58 209.46 481.23 211.97 484.78 214.81 487.87 214.1 494.25 224.73 505.82 228.66 502.93 231.5 506.02 234.54 508.52 235.07 515.64 246.46 524.99 249.36 520.7 252.4 523.19 255.51 524.99 257.27 532.54 268.91 539.26 270.66 533.74 273.77 535.53 276.81 536.55 279.72 544.2 291.1 547.99 291.64 541.49 294.68 542.5 297.52 542.69 301.44 550.11 312.07 550.81 311.36 543.61 314.2 543.8 316.72 543.15 321.49 550.01 330.9 547.6 328.98 540.01 331.49 539.37 333.57 537.92 338.98 543.92 346.77 538.49 343.71 530.85 345.79 529.4 347.35 527.21 353.16 532.09 358.98 523.88 354.93 516.52 356.48 514.33 357.44 511.49 363.4 515.03 367 504.41 362.12 497.66 363.08 494.82 363.41 491.46 369.26 493.51 370.47 480.93 364.99 475.08 365.32 471.72 364.99 467.98 370.47 468.46 369.26 454.47" fill="#673940"/><ellipse cx="278.51" cy="517.2" rx="74.32" ry="128.74" transform="translate(-238.37 106.76) rotate(-30.31)" fill="#5d2a30"/><ellipse cx="276.14" cy="519.57" rx="64.98" ry="112.55" transform="translate(-239.89 105.89) rotate(-30.31)" fill="#673940"/><ellipse cx="276.14" cy="519.57" rx="51.52" ry="89.24" transform="translate(-239.89 105.89) rotate(-30.31)" fill="#5d2a30"/><ellipse cx="278.51" cy="517.2" rx="40.68" ry="70.46" transform="translate(-238.37 106.76) rotate(-30.31)" fill="#e89f23"/><path d="M326.11,543.33c0,29.2-20.62,40.95-46.06,26.27S234,519.34,234,490.15s20.62-40.95,46.06-26.27S326.11,514.14,326.11,543.33Z" transform="translate(-15.42 -104.5)" fill="#e48f25"/><path d="M290.84,564.09c-25.44-14.69-46.06-50.26-46.06-79.45,0-12.09,3.58-21.13,9.52-26.6C242.05,460.46,234,471.9,234,490.15c0,29.19,20.62,64.76,46.06,79.45,14.91,8.6,28.12,8.07,36.54.33C309.24,571.38,300.38,569.59,290.84,564.09Z" transform="translate(-15.42 -104.5)" fill="#bf5627"/><path d="M305.4,519.84c0,10.14-7.16,14.22-16,9.12s-16-17.45-16-27.58,7.16-14.22,16-9.12S305.4,509.71,305.4,519.84Z" transform="translate(-15.42 -104.5)" fill="#47141a"/><path d="M299.45,518.09c0,7.31-5.15,10.25-11.52,6.57s-11.52-12.57-11.52-19.87,5.16-10.25,11.52-6.57S299.45,510.79,299.45,518.09Z" transform="translate(-15.42 -104.5)" fill="#bf5627"/><path d="M295.42,518c0,5.51-3.89,7.73-8.7,5S278,513.48,278,508s3.89-7.73,8.69-5S295.42,512.51,295.42,518Z" transform="translate(-15.42 -104.5)" fill="#e89f23"/><polygon points="760.09 588.75 750.88 489.38 741.03 473.48 683.02 428.69 600.74 374.62 497.48 324.12 497.48 343.08 503.52 435.15 569.92 469.84 607.41 511.54 701.63 562.29 733.09 570.25 760.09 588.75" fill="#067981"/><polygon points="579.2 413.54 593.46 421.69 593.46 428.63 576.89 414.85 579.2 413.54" fill="#e16f34"/><polygon points="576.89 414.85 591.15 423.01 591.15 429.95 576.89 421.62 576.89 414.85" fill="#f68d3b"/><polygon points="591.15 423.01 593.46 421.69 593.46 428.63 591.15 429.95 591.15 423.01" fill="#db5926"/><polygon points="730.86 491.13 751.51 497.05 750.88 489.38 741.03 473.48 683.02 428.69 600.74 374.62 504.01 327.31 500.96 340.58 504.4 342.35 595.11 387.05 730.86 491.13" fill="#0bb3c8"/><polygon points="688.87 498.18 673.14 521.91 607.41 511.54 591.58 493.93 617.31 475.59 688.87 498.18" fill="#015f70"/><path d="M550.06,685.31l46.34-40.16L607,602.49l17.51-16.34-21,2.38-45.82,31S546.34,663.74,550.06,685.31Z" transform="translate(-15.42 -104.5)" fill="#04454a"/><polygon points="329 88.76 302.01 223.31 339.13 240.89 395.84 311.92 434.93 395.87 506.82 436.88 503.94 324.41 477.65 171.3 342.02 93 329 88.76" fill="#0a97aa"/><polygon points="315.69 191.17 331.69 97.27 369.33 117.02 362.37 220.38 315.69 191.17" fill="#331215"/><polygon points="335.42 104.79 364.19 119.89 358 211.83 321.11 188.74 335.42 104.79" fill="#503033"/><polygon points="329 186.72 361.11 165.65 364.19 119.89 339.89 107.14 329 186.72" fill="#674b4d"/><polygon points="373.44 122.87 368.04 217.39 427.13 323.61 448.74 388.58 494.81 415.17 464.62 171.43 373.44 122.87" fill="#331215"/><polygon points="488.71 405.98 452.8 385.27 431.69 321.6 373.03 216.28 376.48 156.06 377.96 130.84 398.66 141.84 460.03 174.54 488.71 405.98" fill="#503033"/><polygon points="398.66 141.84 376.48 156.06 377.96 130.84 398.66 141.84" fill="#674b4d"/><polygon points="319.12 218.37 363.66 239.89 418.87 325.76 449.05 404.39 434.93 395.87 393.14 317.47 341.03 251.66 302.01 223.31 303.01 218.37 319.12 218.37" fill="#067981"/><polygon points="595.11 387.05 504.4 342.35 504.91 362.54 591.26 406.74 734.47 509.52 730.86 491.13 595.11 387.05" fill="#e48f25"/><polygon points="751.51 497.05 730.86 491.13 741.23 543.96 758.64 573.03 751.51 497.05" fill="#331215"/><path d="M599.17,673.91l-4.57-.4,1,11.67,4.87,3.92.28,3.12.8,3.29-4.07.94,3,12.33,5,2.79.81,3.29,1.29,3.32-3.38,2.23L609,732.87l4.85,1.53,1.3,3.32,1.74,3.22-2.56,3.42,6.5,12,4.51.21,1.74,3.21,2.1,3-1.61,4.48,7.86,11.08,4-1.12,2.09,3,2.37,2.57-.59,5.33,8.87,9.65,3.27-2.41,2.37,2.58,2.54,2.08.44,5.95,9.5,7.8,2.43-3.59,2.53,2.08,2.59,1.5,1.47,6.3,8.58,5,13,30.6,61-35.26-.73-1.84,6.06-3.51,4.86-6.84-2.2-4,5.88-3.4,3-8.86-4.06-5.64v0l5.94-3.43,1-10.5-4.58-4.88.27-2.8-.27-3.12,4.58.4-1-11.67-4.88-3.92-.27-3.12-.8-3.29,4.06-.94-3-12.33-5-2.78-.8-3.29-1.3-3.33,3.39-2.23-4.86-12.45L762.43,701l-1.29-3.33-1.74-3.21L762,691l-6.5-12-4.51-.21-1.73-3.21-2.1-3,1.6-4.47-7.85-11.09-4,1.13-2.1-3-2.37-2.58.6-5.33-8.87-9.65-3.28,2.41-2.37-2.58L716,635.42l-.45-5.94-9.5-7.8-2.42,3.58-2.54-2.08-2.59-1.5-1.46-6.3-9.72-5.61-1.46,4.61-2.59-1.5-2.54-.84-2.42-6.38-9.5-3.17-.45,5.43-2.53-.85-2.37-.16-3.27-6.18-8.88-.59-7.36,10.68-2.37-.16-2.09.54,4-10.4-15.81,6.7,1.61,6.33-2.1.53-1.74,1.21-4.51-5-6.5,4.53,2.56,6.37-1.74,1.21-1.3,1.83L609,620.44l-4.85,6.84,3.38,6.14-1.29,1.83-.81,2.37-5-3-3,8.87,4.07,5.63-.8,2.37-.28,2.8-4.87-1.72-1,10.5,4.57,4.88-.27,2.81Zm93.93,148.6,1.2.4-4.78,1.19,1-3.09Z" transform="translate(-15.42 -104.5)" fill="#47141a"/><polygon points="715.63 662.11 763.4 634.44 752.74 615.83 702.42 631.1 715.63 662.11" fill="#47141a"/><polygon points="725.44 552.56 693.2 562.16 677.66 580.23 685.52 591.31 700.71 573.44 733.29 563.65 725.44 552.56" fill="#502026"/><polygon points="708.72 533.17 676.48 542.77 660.94 560.84 669.81 570.49 685 552.62 717.59 542.82 708.72 533.17" fill="#502026"/><polygon points="690.6 517.18 658.36 526.77 642.82 544.84 652.32 552.64 667.5 534.77 700.09 524.98 690.6 517.18" fill="#502026"/><polygon points="740.03 574.5 707.83 584.08 692.26 602.17 698.76 614.2 714.59 595.95 746.53 586.53 740.03 574.5" fill="#502026"/><polygon points="671.87 505.27 624.09 532.94 633.59 540.74 681.36 513.08 671.87 505.27" fill="#47141a"/><polygon points="671.87 505.27 639.63 514.87 624.09 532.94 633.8 538.55 648.99 520.68 681.58 510.88 671.87 505.27" fill="#502026"/><polygon points="653.35 497.99 605.58 525.66 615.07 533.46 662.85 505.79 653.35 497.99" fill="#47141a"/><polygon points="635.86 495.64 588.08 523.3 597.58 531.11 637.4 508.12 635.86 495.64" fill="#47141a"/><polygon points="612.19 503 572.37 525.99 581.87 533.79 621.69 510.8 612.19 503" fill="#47141a"/><polygon points="653.35 497.99 621.11 507.58 605.58 525.66 615.07 528.82 630.26 510.95 662.85 501.16 653.35 497.99" fill="#502026"/><polygon points="593.5 511.23 559.14 533.59 568.63 541.39 611.21 504.53 593.5 511.23" fill="#47141a"/><polygon points="593.63 515.94 553.81 538.93 563.3 546.73 603.12 523.74 593.63 515.94" fill="#47141a"/><polygon points="635.86 495.64 603.62 505.23 588.08 523.3 596.95 523.89 612.14 506.02 644.73 496.23 635.86 495.64" fill="#502026"/><polygon points="612.19 503 587.08 513.01 572.37 525.99 580.23 523.97 594.58 511.2 628 496.31 612.19 503" fill="#502026"/><polygon points="585.08 530.16 545.26 553.15 554.76 560.95 594.58 537.96 585.08 530.16" fill="#47141a"/><polygon points="580.2 548.11 540.38 571.11 549.88 578.9 589.69 555.92 580.2 548.11" fill="#47141a"/><polygon points="579.18 569.01 539.36 592 548.86 599.8 588.68 576.82 579.18 569.01" fill="#47141a"/><polygon points="582.08 591.95 542.26 614.94 551.76 622.74 591.58 599.75 582.08 591.95" fill="#47141a"/><polygon points="645.39 701.42 605.58 724.41 615.07 732.21 654.89 709.22 645.39 701.42" fill="#47141a"/><polygon points="664.12 713.32 624.3 736.31 633.8 744.11 673.62 721.12 664.12 713.32" fill="#47141a"/><polygon points="682.64 720.6 642.82 743.59 652.32 751.39 692.14 728.4 682.64 720.6" fill="#47141a"/><polygon points="700.13 722.96 660.31 745.95 669.81 753.75 709.63 730.76 700.13 722.96" fill="#47141a"/><polygon points="718.53 685.04 766.31 657.38 747.68 643.44 705.32 654.03 718.53 685.04" fill="#47141a"/><polygon points="760.4 622.11 731.28 630.28 712.63 649.78 715.63 662.11 734.55 642.45 763.4 634.44 760.4 622.11" fill="#502026"/><polygon points="751.86 598.03 722.73 606.19 704.09 625.69 708.94 638.15 727.86 618.49 756.72 610.48 751.86 598.03" fill="#502026"/><polygon points="765.29 645.71 739.55 652.73 717.52 673.38 718.53 685.04 740.84 664.24 766.31 657.38 765.29 645.71" fill="#502026"/><polygon points="766.31 667.78 739.49 676.96 718.53 695.45 717.52 705.95 738.75 687.3 765.29 678.28 766.31 667.78" fill="#502026"/><polygon points="763.4 687.37 737.46 696.44 715.63 715.03 712.63 723.9 734.73 705.15 760.4 696.23 763.4 687.37" fill="#502026"/><polygon points="756.72 703.61 730.77 712.68 708.94 731.27 704.09 738.12 726.19 719.37 751.86 710.46 756.72 703.61" fill="#502026"/><polygon points="717.52 673.38 712.64 669.46 712.37 666.34 711.57 663.05 715.63 662.11 712.63 649.78 707.66 647 706.86 643.7 705.56 640.38 708.94 638.15 704.09 625.69 699.24 624.16 697.94 620.84 696.21 617.62 698.76 614.2 692.26 602.17 687.75 601.96 686.01 598.75 683.91 595.79 685.52 591.31 677.67 580.23 673.69 581.35 671.59 578.39 669.22 575.82 669.81 570.49 660.94 560.84 657.67 563.25 655.3 560.67 652.76 558.59 652.32 552.64 642.82 544.84 640.4 548.43 637.86 546.35 635.27 544.85 633.8 538.55 624.09 532.94 622.63 537.55 620.03 536.05 617.5 535.21 615.07 528.82 605.58 525.66 605.13 531.08 602.59 530.24 600.22 530.08 596.95 523.89 588.08 523.3 588.67 529.31 586.3 529.15 584.21 529.69 580.23 523.97 572.37 525.99 573.98 532.32 571.88 532.85 570.15 534.06 565.63 529.06 559.14 533.59 561.69 539.96 559.95 541.17 558.65 543 553.81 538.93 548.95 545.77 552.33 551.91 551.04 553.74 550.24 556.11 545.26 553.15 542.26 562.01 546.33 567.65 545.53 570.02 545.26 572.82 540.38 571.11 539.36 581.6 543.93 586.48 543.66 589.29 543.93 592.4 539.36 592 540.38 603.67 545.26 607.59 545.53 610.71 546.33 614 542.26 614.94 545.26 627.27 550.24 630.06 551.04 633.35 552.33 636.67 548.95 638.9 553.81 651.36 558.65 652.89 559.95 656.21 561.69 659.42 559.14 662.85 565.63 674.88 570.15 675.09 571.88 678.3 573.98 681.26 572.37 685.74 580.23 696.82 584.21 695.7 586.3 698.66 588.67 701.23 588.08 706.56 596.95 716.21 600.22 713.8 602.59 716.38 605.13 718.47 605.58 724.41 615.07 732.21 617.5 728.62 620.03 730.7 622.63 732.2 624.09 738.5 633.8 744.11 635.27 739.5 637.86 741 640.4 741.84 642.82 748.23 652.32 751.39 652.76 745.97 655.3 746.81 657.67 746.97 660.94 753.16 669.81 753.75 669.22 747.74 671.59 747.89 673.69 747.36 677.67 753.08 685.52 751.06 683.91 744.74 686.01 744.2 687.75 742.99 692.26 747.99 698.76 743.46 696.21 737.09 697.94 735.88 699.24 734.05 704.09 738.12 708.94 731.27 705.56 725.14 706.86 723.31 707.66 720.94 712.63 723.9 715.63 715.03 711.57 709.4 712.37 707.03 712.64 704.23 717.52 705.95 718.53 695.45 713.96 690.57 714.23 687.76 713.96 684.65 718.53 685.04 717.52 673.38" fill="#673940"/><path d="M720.54,787c0,48.28-34.1,67.72-76.17,43.43S568.19,747.32,568.19,699s34.11-67.72,76.18-43.43S720.54,738.73,720.54,787Z" transform="translate(-15.42 -104.5)" fill="#5d2a30"/><ellipse cx="644.21" cy="744.04" rx="57.67" ry="99.89" transform="translate(-302.87 322.34) rotate(-30.31)" fill="#673940"/><ellipse cx="644.21" cy="744.04" rx="49.72" ry="86.11" transform="translate(-302.86 322.33) rotate(-30.31)" fill="#5d2a30"/><path d="M697.38,773.64c0,33.6-23.73,47.13-53,30.22s-53-57.85-53-91.45,23.73-47.13,53-30.22S697.38,740,697.38,773.64Z" transform="translate(-15.42 -104.5)" fill="#e89f23"/><path d="M694.87,770.22v.49c0,31-21.91,43.53-48.88,27.86s-48.87-53.24-48.87-84.27S619,670.87,646,686.44c.6.39,1.29.79,1.89,1.19a72.91,72.91,0,0,1,12.29,9.51,105.79,105.79,0,0,1,9.22,9.62,122,122,0,0,1,9.32,12.89q2.53,4.32,5.06,8.92v.1A108.55,108.55,0,0,1,690.11,744a76.51,76.51,0,0,1,3.38,12.79A69.9,69.9,0,0,1,694.87,770.22Z" transform="translate(-15.42 -104.5)" fill="#e48f25"/><path d="M657.46,792.77c-27-15.58-48.87-53.32-48.87-84.29,0-12.82,3.79-22.41,10.1-28.21-13,2.57-21.55,14.7-21.55,34.06,0,31,21.88,68.7,48.86,84.28,15.82,9.14,29.84,8.57,38.77.36C677,800.51,667.57,798.61,657.46,792.77Z" transform="translate(-15.42 -104.5)" fill="#bf5627"/><path d="M668.3,746.1c0,9.4-6.64,13.18-14.84,8.45S638.63,738.37,638.63,729s6.64-13.19,14.83-8.46S668.3,736.7,668.3,746.1Z" transform="translate(-15.42 -104.5)" fill="#47141a"/><path d="M669.17,746c0,9.69-6.84,13.59-15.28,8.72s-15.29-16.68-15.29-26.36,6.85-13.59,15.29-8.72S669.17,736.33,669.17,746Z" transform="translate(-15.42 -104.5)" fill="#bf5627"/><path d="M663.81,745.91c0,7.3-5.16,10.25-11.53,6.57s-11.53-12.58-11.53-19.89,5.17-10.25,11.53-6.57S663.81,738.6,663.81,745.91Z" transform="translate(-15.42 -104.5)" fill="#e89f23"/><path d="M635.58,699.07c0,4-2.85,5.65-6.35,3.63a14,14,0,0,1-6.36-11c0-4,2.85-5.65,6.36-3.62A14,14,0,0,1,635.58,699.07Z" transform="translate(-15.42 -104.5)" fill="#bf5627"/><path d="M627.35,718.46c0,4-2.84,5.64-6.35,3.62a14,14,0,0,1-6.36-11c0-4,2.85-5.65,6.36-3.62A14,14,0,0,1,627.35,718.46Z" transform="translate(-15.42 -104.5)" fill="#bf5627"/><path d="M631.83,742.92c0,4-2.85,5.64-6.36,3.62a14,14,0,0,1-6.35-11c0-4,2.85-5.64,6.35-3.62A14,14,0,0,1,631.83,742.92Z" transform="translate(-15.42 -104.5)" fill="#bf5627"/><path d="M646.5,765.89c0,4-2.85,5.65-6.36,3.62a14,14,0,0,1-6.35-11c0-4,2.85-5.65,6.35-3.62A14,14,0,0,1,646.5,765.89Z" transform="translate(-15.42 -104.5)" fill="#bf5627"/><path d="M665,782.22c0,4-2.84,5.64-6.35,3.62a14,14,0,0,1-6.36-11c0-4,2.85-5.65,6.36-3.62A14,14,0,0,1,665,782.22Z" transform="translate(-15.42 -104.5)" fill="#bf5627"/><path d="M686.06,783.81c0,4-2.85,5.65-6.35,3.63a14,14,0,0,1-6.36-11c0-4,2.85-5.65,6.36-3.62A14,14,0,0,1,686.06,783.81Z" transform="translate(-15.42 -104.5)" fill="#bf5627"/><path d="M694.87,770.22a4.94,4.94,0,0,1-3.76-.7,14.21,14.21,0,0,1-6.35-11c0-4,2.88-5.66,6.35-3.57a8.75,8.75,0,0,1,2.38,1.88A69.9,69.9,0,0,1,694.87,770.22Z" transform="translate(-15.42 -104.5)" fill="#bf5627"/><path d="M690.11,744a5.72,5.72,0,0,1-1.58-.69,13.94,13.94,0,0,1-6.35-11c0-1.78.6-3.17,1.59-3.67A108.55,108.55,0,0,1,690.11,744Z" transform="translate(-15.42 -104.5)" fill="#bf5627"/><path d="M678.71,719.65a5.2,5.2,0,0,1-3.17-.79,13.93,13.93,0,0,1-6.34-11,2,2,0,0,1,.19-1.09A122,122,0,0,1,678.71,719.65Z" transform="translate(-15.42 -104.5)" fill="#bf5627"/><path d="M660.17,697.14c-.2,3.57-3,5.06-6.24,3.08a13.76,13.76,0,0,1-6.35-10.91,4.56,4.56,0,0,1,.3-1.68A72.91,72.91,0,0,1,660.17,697.14Z" transform="translate(-15.42 -104.5)" fill="#bf5627"/><path d="M562,624.19c3.16-8,21.16-18.57,36.22-26,6.1-5.62,13.17-11.19,16.42-11.37,23.71-1.23,61.24,28.58,63.79,30.65l.13.08,25.77-14.88-.66-8.34S663.9,568.83,640.85,566c-7.15-.87-15.76,2-24.28,6.46-18.7,9.79-38.8,21.55-40.34,23.92l-.05.05c-.65,1.09-15.58,16.42-18.65,29.81C551.34,653,556.69,637.36,562,624.19Z" transform="translate(-15.42 -104.5)" fill="#57c6d6"/><path d="M542,679.82l8.08,5.49s6.63-47.95,11.9-61.12c3.16-8,21.16-18.57,36.22-26,9.88-4.83,18.44-8.34,20.76-8.82,5.67-1.19,56.33,26.43,59.45,28.1l.13.08-.66-8.34s-39.73-25.5-62.78-28.31c-11.37-1.41-26.34,6.63-38.85,15.49l-.05.05c-12.77,9-22.91,19-23.92,20.63C550.28,620.37,542,679.82,542,679.82Z" transform="translate(-15.42 -104.5)" fill="#067981"/><polygon points="441.11 409.15 401.78 431.85 349.94 336 296.52 266.49 234.26 238.53 211.65 243.99 171.79 249.85 211.12 227.15 229.52 217.9 270.5 208.38 339.13 240.89 395.84 311.92 441.11 409.15" fill="#6fccdd"/><polygon points="229.52 217.9 211.12 227.15 171.79 249.85 190.19 240.6 231.17 231.09 270.5 208.38 229.52 217.9" fill="#40bee0"/><polygon points="401.78 431.85 388.92 425.79 350.75 340.94 294.8 271.65 233.08 243.67 196.15 252.97 180.9 263.86 171.79 249.85 190.19 240.6 231.17 231.09 299.8 263.6 356.51 334.62 401.78 431.85" fill="#067981"/><polygon points="318.29 70.01 438.48 0.62 443.92 0 610.31 88.63 622.25 104.97 619.01 121.78 498.82 191.17 472.5 158.2 318.29 70.01" fill="#dcdbdb"/><polygon points="622.25 104.97 502.06 174.37 498.82 191.17 619.01 121.78 622.25 104.97" fill="#96d0d7"/><polygon points="517.86 180.18 522.14 167.44 597.14 124.54 603.21 130.9 517.86 180.18" fill="#342e29"/><polygon points="532.98 163.41 524.11 168.49 524.11 172.8 534.42 164.23 532.98 163.41" fill="#e16f34"/><polygon points="534.42 164.23 525.55 169.31 525.55 173.62 534.42 168.44 534.42 164.23" fill="#f68d3b"/><polygon points="525.55 169.31 524.11 168.49 524.11 172.8 525.55 173.62 525.55 169.31" fill="#db5926"/><polygon points="563.14 146.21 554.27 151.28 554.27 155.6 564.57 147.03 563.14 146.21" fill="#e16f34"/><polygon points="564.57 147.03 555.7 152.1 555.7 156.42 564.57 151.23 564.57 147.03" fill="#f68d3b"/><polygon points="555.7 152.1 554.27 151.28 554.27 155.6 555.7 156.42 555.7 152.1" fill="#db5926"/><polygon points="593.29 129 584.42 134.08 584.42 138.39 594.73 129.82 593.29 129" fill="#e16f34"/><polygon points="594.73 129.82 585.86 134.9 585.86 139.21 594.73 134.03 594.73 129.82" fill="#f68d3b"/><polygon points="585.86 134.9 584.42 134.08 584.42 138.39 585.86 139.21 585.86 134.9" fill="#db5926"/><polygon points="610.31 88.63 490.12 158.02 502.06 174.37 622.25 104.97 610.31 88.63" fill="#e5e5e5"/><polygon points="313.37 83.09 318.29 70.01 323.73 69.39 490.12 158.02 502.06 174.37 498.82 191.17 471.18 169.26 313.37 83.09" fill="#6ea3aa"/><polygon points="878.78 503.66 848.47 538.99 812.57 559.45 758.67 573 751.51 497.05 810.92 480.57 841.4 462.99 871.8 427.67 878.78 503.66" fill="#471a20"/><polygon points="810.92 480.57 812.57 559.45 848.47 538.99 841.4 462.99 810.92 480.57" fill="#502026"/><polygon points="871.06 420.03 750.95 489.28 750.95 489.37 750.87 489.37 741.01 473.51 749.06 468.91 861.2 404.09 871.06 420.03" fill="#6fccdd"/><polygon points="803.21 359.3 720.92 305.23 600.74 374.62 683.02 428.69 803.21 359.3" fill="#40bee0"/><polygon points="861.22 404.09 803.21 359.3 683.02 428.69 741.03 473.48 861.22 404.09" fill="#57c6d6"/><polygon points="476.99 311.38 406.47 276.32 431.69 321.6 481.17 345.14 476.99 311.38" fill="#331215"/><polygon points="340.93 63.22 495.98 145.18 496.54 146.02 492.33 148.57 340.03 64.95 340.93 63.22" fill="#6ea3aa"/><polygon points="344.25 61.3 495.98 145.18 493.24 146.83 340.93 63.22 344.25 61.3" fill="#e5e5e5"/><polygon points="365.45 49.13 520.5 131.09 521.07 131.93 516.85 134.48 364.55 50.86 365.45 49.13" fill="#6ea3aa"/><polygon points="368.77 47.21 520.5 131.09 517.76 132.75 365.45 49.13 368.77 47.21" fill="#e5e5e5"/><polygon points="389.98 35.04 545.02 117 545.59 117.84 541.38 120.39 389.07 36.77 389.98 35.04" fill="#6ea3aa"/><polygon points="393.29 33.12 545.02 117 542.28 118.66 389.98 35.04 393.29 33.12" fill="#e5e5e5"/><polygon points="414.5 20.96 569.54 102.92 570.11 103.76 565.9 106.31 413.6 22.69 414.5 20.96" fill="#6ea3aa"/><polygon points="417.82 19.04 569.54 102.92 566.81 104.57 414.5 20.96 417.82 19.04" fill="#e5e5e5"/><polygon points="439.02 6.87 594.07 88.83 594.64 89.67 590.42 92.22 438.12 8.6 439.02 6.87" fill="#6ea3aa"/><polygon points="442.34 4.95 594.07 88.83 591.33 90.49 439.02 6.87 442.34 4.95" fill="#e5e5e5"/><polygon points="395.84 311.92 356.51 334.62 401.78 431.85 441.11 409.15 395.84 311.92" fill="#40bee0"/><polygon points="339.13 240.89 299.8 263.6 231.17 231.09 270.5 208.38 339.13 240.89" fill="#57c6d6"/><polygon points="267.75 200.25 239.41 216.6 239.41 230.64 272.42 202.91 267.75 200.25" fill="#6fccdd"/><polygon points="272.42 202.91 244.08 219.27 244.08 233.31 272.42 216.95 272.42 202.91" fill="#0a97aa"/><polygon points="244.08 219.27 239.41 216.6 239.41 230.64 244.08 233.31 244.08 219.27" fill="#01618d"/><polygon points="688.21 489.84 688.87 498.18 662.97 512.98 662.85 505.79 688.21 489.84" fill="#40bee0"/><path d="M559.26,442,558,476.44c0,1.31-2,7.23-3.54,8.05a4.49,4.49,0,0,1-.9.41c-2.14,1-2.8,2.3-5.18,1.73l-.16-.08-2.22-.83c-1.56-.9-3-10.32-2.95-11.47V447Z" transform="translate(-15.42 -104.5)" fill="#625952"/><path d="M576.55,501.25c-.08,4.11-1.31,6.41-3.12,8.3a6.67,6.67,0,0,1-.74.82c-1.07,1.07-4.11,1.81-4.76.74v.08L548.4,486.63l-.16-.08-2.22-.83.08-4.1,8-16.25.08-.08,2.47-3.28,2.63-2.19L559,471.35l15.54,21.9C577.13,495.48,576.55,498.78,576.55,501.25Z" transform="translate(-15.42 -104.5)" fill="#625952"/><path d="M573.43,509.55a6.67,6.67,0,0,1-.74.82c-1.07,1.07-4.11,1.81-4.76.74v.08L546,485.72c-1.56-.9-3-10.32-2.95-11.47v-24.4c3.37-.5,7.15-.91,10-1.07,1.8-.17,4.1-1.4,6.16-2.47v14.05a1.25,1.25,0,0,1-.17.5,5.74,5.74,0,0,1-1.06,1.89,8.73,8.73,0,0,1-3.87,2.54l-.08.08c-4.76,1.89-5.52,1.82-5.52,2.4s.32,7.13.32,7.13a17.73,17.73,0,0,0,3.39,10.15C555.27,488.93,571.3,509.55,573.43,509.55Z" transform="translate(-15.42 -104.5)" fill="#473d35"/><path d="M566,293.91V450c0,2.3-1.31,4.52-4.19,6.25-.16.08-.24.16-.41.24a21,21,0,0,1-10,2.55,23.22,23.22,0,0,1-8.3-1,12.87,12.87,0,0,1-3.61-1.48c-3.21-1.89-4.69-4.35-4.44-6.73V293.91Z" transform="translate(-15.42 -104.5)" fill="#6a6560"/><path d="M543.07,293.91V458.06a12.87,12.87,0,0,1-3.61-1.48c-3.21-1.89-4.69-4.35-4.44-6.73V293.91Z" transform="translate(-15.42 -104.5)" fill="#625952"/><path d="M561.8,293.91V456.26c-.16.08-.24.16-.41.24a21,21,0,0,1-10,2.55V293.91Z" transform="translate(-15.42 -104.5)" fill="#747474"/><path d="M539.49,300.24c6,3.48,15.85,3.46,21.92,0s6.11-9.18.07-12.66-15.85-3.47-21.92,0S533.45,296.75,539.49,300.24Z" transform="translate(-15.42 -104.5)" fill="#878787"/><path d="M543,264.06h14.89v27.25h0c.07,1.16-.65,2.33-2.18,3.22a11.68,11.68,0,0,1-10.54,0c-1.54-.89-2.25-2.07-2.15-3.24h0Z" transform="translate(-15.42 -104.5)" fill="#625952"/><path d="M545.2,267.11a11.68,11.68,0,0,0,10.54,0c2.91-1.69,2.93-4.41,0-6.08a11.62,11.62,0,0,0-10.54,0C542.32,262.71,542.3,265.43,545.2,267.11Z" transform="translate(-15.42 -104.5)" fill="#878787"/><path d="M546.78,266.2a8.19,8.19,0,0,0,7.39,0c2.05-1.19,2.06-3.1,0-4.27a8.16,8.16,0,0,0-7.39,0C544.75,263.11,544.74,265,546.78,266.2Z" transform="translate(-15.42 -104.5)" fill="#292721"/><polygon points="864.83 568.84 835.82 585.65 832.64 604.97 861.65 588.15 864.83 568.84" fill="#362c23"/><polygon points="557.69 353.56 605.58 371.88 688.87 426.85 745.63 471.81 754.17 481.65 802.96 467.85 841.85 445.02 862.17 418.77 856.9 406.45 798.59 361.97 717.59 308.7 655.2 273.08 720.92 305.23 803.21 359.3 861.22 404.09 871.07 419.99 840.75 455.35 804.84 475.81 750.88 489.38 741.03 473.48 683.02 428.69 600.74 374.62 557.69 353.56" fill="#2f6a90" style="mix-blend-mode:screen"/><polygon points="798.9 529.56 767.29 537.09 765.83 515.43 797.44 507.9 798.9 529.56" fill="#f5f6f6"/><polygon points="870.61 479.38 850.22 496.24 848.76 474.58 869.16 457.72 870.61 479.38" fill="#f5f6f6"/><polygon points="797.44 507.9 788.03 514.77 783.77 523.62 768.94 527.17 767.29 537.09 765.83 515.43 797.44 507.9" fill="#afafae"/><polygon points="869.16 457.72 863.59 467.18 861.83 476.71 852.31 485.55 850.22 496.24 848.76 474.58 869.16 457.72" fill="#afafae"/><path d="M455.1,320.37l-7.86.77c-6.43,1.29-11.65,9.29-11.65,17.87v49.76c0,8.58,5.22,14.48,11.65,13.19L458,400.11c6.43-1.3,8.74-8.22,8.74-16.8V333.55C466.74,325,461.53,319.07,455.1,320.37Z" transform="translate(-15.42 -104.5)" fill="#21170e"/><path d="M455.1,321.76l-7.86.77c-6.43,1.29-11.65,9.3-11.65,17.87v49.77c0,8.57,5.22,14.47,11.65,13.18L458,401.5c6.43-1.29,8.74-8.22,8.74-16.79V334.94C466.74,326.37,461.53,320.46,455.1,321.76Z" transform="translate(-15.42 -104.5)" fill="#342e29"/><path d="M456,396.68V335.82a36.17,36.17,0,0,1,10.76-25.74l26.92-26.54.31-3.24-2.5-1.11L462.36,307a36.13,36.13,0,0,0-11.19,26.15v64.77a35.54,35.54,0,0,0,15.94,29.65L505.5,453l3.26-1.2L506.83,447l-37.51-25.34A30.17,30.17,0,0,1,456,396.68Z" transform="translate(-15.42 -104.5)" fill="#312821"/><path d="M496.59,232.39,495,215.28l-41.76.8v.08a22.14,22.14,0,0,0-8.86,2c-5.14,2.65-4.79,6.8.78,9.28a22.48,22.48,0,0,0,7.08,1.55h0Z" transform="translate(-15.42 -104.5)" fill="#96d0d7" style="mix-blend-mode:multiply"/><path d="M480.65,213.36l31.86-.47v11.66h0c.15,1.94-1.25,3.9-4.22,5.43-6,3.08-16.06,3.24-22.53.36-3.25-1.44-5-3.37-5.12-5.33h0Z" transform="translate(-15.42 -104.5)" fill="#6ea3aa"/><path d="M482.12,184.36l27.44-.31,3,28.84h0c.15,1.94-1.25,3.9-4.22,5.44-6,3.07-16.06,3.23-22.53.36-3.25-1.44-5-3.38-5.12-5.33h0Z" transform="translate(-15.42 -104.5)" fill="#d96826"/><path d="M485.75,179.7c5.15-2.65,13.83-2.79,19.4-.31s5.93,6.62.79,9.27-13.83,2.79-19.41.31S480.61,182.35,485.75,179.7Z" transform="translate(-15.42 -104.5)" fill="#fbab22"/><path d="M485.59,207.89c5.54-2.85,14.9-3,20.91-.34s6.38,7.14.84,10-14.9,3-20.91.33S480.05,210.74,485.59,207.89Z" transform="translate(-15.42 -104.5)" fill="#f9a01b"/><path d="M500.67,197.05c1.43,3.86,2,10,.52,13.62s-8.17,2.57-9.6-1.29-1-5.85.49-9.43S499.23,193.19,500.67,197.05Z" transform="translate(-15.42 -104.5)" fill="#f9a01b"/><path d="M495.28,200.34c1.2,3.95,1.13,9.48-.13,12.36s-3.27,2-4.47-1.92-1.13-9.48.14-12.36S494.09,196.4,495.28,200.34Z" transform="translate(-15.42 -104.5)" fill="#fbab22"/></g></g></svg>