<svg id="Ñëîé_1" data-name="Ñëîé 1" xmlns="http://www.w3.org/2000/svg" xmlns:xlink="http://www.w3.org/1999/xlink" viewBox="0 0 600 449.14"><defs><linearGradient id="Áåçûìÿííûé_ãðàäèåíò_13" x1="145.78" y1="192.12" x2="57.32" y2="263.06" gradientUnits="userSpaceOnUse"><stop offset="0" stop-color="#bcd5ff"/><stop offset="0.15" stop-color="#a3beff"/><stop offset="0.39" stop-color="#82a0ff"/><stop offset="0.61" stop-color="#6a8aff"/><stop offset="0.82" stop-color="#5c7dff"/><stop offset="1" stop-color="#5778ff"/></linearGradient><linearGradient id="Áåçûìÿííûé_ãðàäèåíò_11" x1="7.34" y1="680.64" x2="-73.39" y2="745.37" gradientTransform="matrix(0.87, 0.5, -1, 0.58, 836.98, -182.62)" gradientUnits="userSpaceOnUse"><stop offset="0" stop-color="#c0d6ff"/><stop offset="0.3" stop-color="#c5dbff"/><stop offset="0.65" stop-color="#d3e9ff"/><stop offset="1" stop-color="#e9ffff"/></linearGradient><linearGradient id="Áåçûìÿííûé_ãðàäèåíò_14" x1="193.89" y1="406.72" x2="193.89" y2="0.86" gradientTransform="matrix(-1, 0, 0, 1, 514.32, 0)" gradientUnits="userSpaceOnUse"><stop offset="0" stop-color="#5778ff"/><stop offset="0.18" stop-color="#5c7dff"/><stop offset="0.39" stop-color="#6a8aff"/><stop offset="0.61" stop-color="#82a0ff"/><stop offset="0.85" stop-color="#a3beff"/><stop offset="1" stop-color="#bcd5ff"/></linearGradient><linearGradient id="Áåçûìÿííûé_ãðàäèåíò_11-2" x1="135.82" y1="109.04" x2="135.82" y2="79.97" gradientTransform="matrix(-1, 0, 0, 1, 514.32, 0)" xlink:href="#Áåçûìÿííûé_ãðàäèåíò_11"/><linearGradient id="Áåçûìÿííûé_ãðàäèåíò_11-3" x1="249.98" y1="634.36" x2="249.98" y2="355.16" gradientTransform="matrix(-0.87, -0.5, 0, 1.15, 528, -237.93)" xlink:href="#Áåçûìÿííûé_ãðàäèåíò_11"/><linearGradient id="Áåçûìÿííûé_ãðàäèåíò_35" x1="164.07" y1="203.41" x2="229.8" y2="85.05" gradientTransform="matrix(-1, 0, 0, 1, 514.32, 0)" gradientUnits="userSpaceOnUse"><stop offset="0" stop-color="#5778ff"/><stop offset="0.04" stop-color="#5c7dff"/><stop offset="0.09" stop-color="#6a8aff"/><stop offset="0.14" stop-color="#82a0ff"/><stop offset="0.19" stop-color="#a3beff"/><stop offset="0.22" stop-color="#bcd5ff"/></linearGradient><linearGradient id="Áåçûìÿííûé_ãðàäèåíò_11-4" x1="240.95" y1="195.75" x2="202.76" y2="121.08" gradientTransform="matrix(-1, 0, 0, 1, 514.32, 0)" xlink:href="#Áåçûìÿííûé_ãðàäèåíò_11"/><linearGradient id="Áåçûìÿííûé_ãðàäèåíò_34" x1="308.86" y1="379.51" x2="173.7" y2="140.03" gradientTransform="matrix(-1, 0, 0, 1, 514.32, 0)" gradientUnits="userSpaceOnUse"><stop offset="0" stop-color="#c0d6ff"/><stop offset="0.12" stop-color="#d0e6ff"/><stop offset="0.26" stop-color="#e9ffff"/><stop offset="0.51" stop-color="#c0d6ff"/><stop offset="0.62" stop-color="#d0e6ff"/><stop offset="0.75" stop-color="#e9ffff"/><stop offset="1" stop-color="#c0d6ff"/></linearGradient><linearGradient id="Áåçûìÿííûé_ãðàäèåíò_13-2" x1="552.03" y1="297.24" x2="463.57" y2="368.18" xlink:href="#Áåçûìÿííûé_ãðàäèåíò_13"/><linearGradient id="Áåçûìÿííûé_ãðàäèåíò_11-5" x1="347.02" y1="568.56" x2="266.29" y2="633.29" xlink:href="#Áåçûìÿííûé_ãðàäèåíò_11"/><linearGradient id="Áåçûìÿííûé_ãðàäèåíò_13-3" x1="552.03" y1="275.13" x2="463.57" y2="346.07" xlink:href="#Áåçûìÿííûé_ãðàäèåíò_13"/><linearGradient id="Áåçûìÿííûé_ãðàäèåíò_11-7" x1="324.91" y1="549.4" x2="244.18" y2="614.14" xlink:href="#Áåçûìÿííûé_ãðàäèåíò_11"/></defs><title>history</title><path d="M111.59,274.89,56.93,245c-.94-.51-.82-1.41.26-2l54.14-29.58a4.23,4.23,0,0,1,3.65-.14l54.66,29.87c.94.51.82,1.4-.26,2l-54.14,29.59A4.27,4.27,0,0,1,111.59,274.89Z" transform="translate(0 -0.86)" fill="#242993" opacity="0.5"/><path d="M113.13,290.21a5.56,5.56,0,0,1-2.62-.58l-80-43.7a2,2,0,0,1-1.23-1.75A2.64,2.64,0,0,1,30.93,242l79.2-43.28a6.85,6.85,0,0,1,5.93-.21l80,43.7a2,2,0,0,1,1.22,1.76,2.6,2.6,0,0,1-1.6,2.13l-79.2,43.28A7,7,0,0,1,113.13,290.21Zm-2-1.56a5.58,5.58,0,0,0,4.74-.21L195,245.17c.63-.35,1-.78,1-1.16s-.34-.63-.62-.78l-80-43.7a5.65,5.65,0,0,0-4.74.21L31.52,243c-.63.34-1,.78-1,1.16s.34.62.62.78Z" transform="translate(0 -0.86)" fill="#42ffff"/><path d="M170.26,222.93V213H153.09L115,192.14a4.23,4.23,0,0,0-3.65.14L73.39,213H56.3v10h0a1,1,0,0,0,.62.83l54.66,29.87a4.27,4.27,0,0,0,3.65-.14L169.38,224A1.44,1.44,0,0,0,170.26,222.93Z" transform="translate(0 -0.86)" fill="url(#Áåçûìÿííûé_ãðàäèåíò_13)"/><path d="M111.59,243.75,56.93,213.88c-.94-.52-.82-1.41.26-2l54.14-29.58a4.27,4.27,0,0,1,3.65-.15L169.64,212c.94.51.82,1.4-.26,2L115.24,243.6A4.27,4.27,0,0,1,111.59,243.75Z" transform="translate(0 -0.86)" fill="url(#Áåçûìÿííûé_ãðàäèåíò_11)"/><path d="M111.78,240.25,63.33,213.77c-.83-.45-.73-1.24.23-1.77l48-26.22a3.79,3.79,0,0,1,3.23-.13l48.46,26.48c.83.45.72,1.25-.23,1.77l-48,26.22A3.78,3.78,0,0,1,111.78,240.25Z" transform="translate(0 -0.86)" fill="#242993"/><path d="M111.91,238,67.39,213.7c-.76-.41-.67-1.14.21-1.62L111.69,188a3.46,3.46,0,0,1,3-.12l44.52,24.33c.76.41.67,1.14-.21,1.62l-44.09,24.09A3.42,3.42,0,0,1,111.91,238Z" transform="translate(0 -0.86)" fill="#4553c7"/><polygon points="112.26 210.5 107.06 207.66 109.9 206.11 115.1 208.95 112.26 210.5" fill="#42ffff"/><polygon points="121.94 210.1 116.73 212.95 113.89 211.39 119.09 208.55 121.94 210.1" fill="#42ffff"/><polygon points="111.08 211.15 108.24 212.7 105.39 211.15 108.24 209.6 111.08 211.15" fill="#42ffff"/><polygon points="120.9 216.52 118.06 218.07 109.86 213.59 112.71 212.04 120.9 216.52" fill="#42ffff"/><path d="M113.28,370.86a6.7,6.7,0,0,1-3.2-.81L.94,310.47a1.74,1.74,0,0,1,0-3.09l71.92-39.3.6,1L1.54,308.36a.63.63,0,0,0,0,1.13l109.13,59.59a5.52,5.52,0,0,0,5.22,0l91.21-48.81.58,1-91.2,48.81A6.64,6.64,0,0,1,113.28,370.86Z" transform="translate(0 -0.86)" fill="#42ffff"/><path d="M402.37,426.1a12,12,0,0,1-5.64-1.23L198.42,316.5a4,4,0,0,1-2.43-3.41c0-1.57,1.21-3.14,3.31-4.29l17.27-9.43c3.8-2.08,9.58-2.29,12.9-.48l198.3,108.36a4,4,0,0,1,2.43,3.41c0,1.58-1.2,3.15-3.31,4.3l-17.26,9.43A15.61,15.61,0,0,1,402.37,426.1ZM223.82,298.77a14.22,14.22,0,0,0-6.66,1.58l-17.26,9.43c-1.73.94-2.71,2.15-2.71,3.31a3,3,0,0,0,1.83,2.44l198.3,108.36c3,1.64,8.24,1.42,11.71-.48L426.29,414c1.73-.94,2.72-2.15,2.72-3.32a3,3,0,0,0-1.83-2.43L228.87,299.86A10.82,10.82,0,0,0,223.82,298.77Z" transform="translate(0 -0.86)" fill="#42ffff"/><path d="M394.39,217.88a6.66,6.66,0,0,1-3.19-.81l-33.52-18.32a2.21,2.21,0,0,1,0-3.93l72.63-39.69a6.71,6.71,0,0,1,6.38,0l33.52,18.32a2.21,2.21,0,0,1,0,3.93l-72.63,39.69A6.63,6.63,0,0,1,394.39,217.88Zm39.11-62.43a5.39,5.39,0,0,0-2.59.66L358.28,195.8a1.1,1.1,0,0,0,0,2l33.52,18.32a5.41,5.41,0,0,0,5.18,0l72.64-39.69a1.11,1.11,0,0,0,0-2L436.1,156.11A5.4,5.4,0,0,0,433.5,155.45Z" transform="translate(0 -0.86)" fill="#42ffff"/><path d="M432.81,283.29a8.9,8.9,0,0,1-4.24-1.07L395.78,264.3a2,2,0,0,1-1.09-1.79,2,2,0,0,1,1.09-1.79l32.79-17.92a8.9,8.9,0,0,1,8.47,0l32.79,17.92a2,2,0,0,1,0,3.58L437,282.22A8.89,8.89,0,0,1,432.81,283.29Zm0-40.44a7.62,7.62,0,0,0-3.63.92l-32.8,17.92a.93.93,0,0,0-.49.82.91.91,0,0,0,.49.81l32.8,17.92a7.62,7.62,0,0,0,7.27,0l32.79-17.92a.9.9,0,0,0,.5-.81.92.92,0,0,0-.5-.82l-32.79-17.92A7.63,7.63,0,0,0,432.8,242.85Z" transform="translate(0 -0.86)" fill="#42ffff"/><path d="M237.39,10.11,254,1.05v0a2.63,2.63,0,0,1,2.46.21L399.59,79.5a8.72,8.72,0,0,1,3.9,7V394.68a3.14,3.14,0,0,1-1.38,3l0,0-16.6,9.05-.37-17.14L256.47,319.26a8.72,8.72,0,0,1-3.9-7.05V18.2c-.33,1-.59,1.72-.62,1.75S237.39,10.11,237.39,10.11Z" transform="translate(0 -0.86)" fill="url(#Áåçûìÿííûé_ãðàäèåíò_14)"/><path d="M403.39,85.41,360.14,109l-6.53-3.57L400.29,80A9.08,9.08,0,0,1,403.39,85.41Z" transform="translate(0 -0.86)" fill="url(#Áåçûìÿííûé_ãðàäèåíò_11-2)"/><path d="M240,328.26l143.12,78.21c2.15,1.18,3.9-.07,3.9-2.79V95.55a8.72,8.72,0,0,0-3.9-7L240,10.29c-2.15-1.18-3.9.07-3.9,2.79V321.21A8.72,8.72,0,0,0,240,328.26Z" transform="translate(0 -0.86)" fill="url(#Áåçûìÿííûé_ãðàäèåíò_11-3)"/><polygon points="236.06 303.49 386.98 385.95 386.98 111.55 236.06 29.08 236.06 303.49" fill="#242993"/><polygon points="236.06 303.49 386.98 385.95 386.98 111.55 236.06 29.08 236.06 303.49" fill="#242993"/><g opacity="0.51"><polygon points="236.06 293.86 386.98 376.33 386.98 120.34 236.06 37.87 236.06 293.86" fill="#4553c7"/></g><path d="M299.76,56.85l27.3,15c.8.43,1.48.56,1.77-.14a2.29,2.29,0,0,0,.16-.87h0a4.32,4.32,0,0,0-1.93-3.49L299.47,52.24c-.08,0-.16-.14-.25-.11-.87.23-1,.39-1,1.62l.12.35A2.71,2.71,0,0,0,299.76,56.85Z" transform="translate(0 -0.86)" fill="#5778ff"/><path d="M299.22,52.14a2.21,2.21,0,0,0-.15.86A4.31,4.31,0,0,0,301,56.49l27.59,15.08.25.1a1.15,1.15,0,0,1-1.77.52L299.47,57.11a4.29,4.29,0,0,1-1.93-3.49C297.54,52.39,298.27,51.78,299.22,52.14Z" transform="translate(0 -0.86)" fill="#bcd5ff"/><path d="M395.78,121.12l.31-.17a1.43,1.43,0,0,1,1.33-.11h0l1.17.63-.57.05a2.4,2.4,0,0,1,.16.94v17.84a4.65,4.65,0,0,1-2.09,3.78l-.31.17a2.12,2.12,0,0,1-.42.18l.3.6-1.25-.68h0a1.69,1.69,0,0,1-.74-1.59V124.9A4.69,4.69,0,0,1,395.78,121.12Z" transform="translate(0 -0.86)" fill="#e9ffff"/><path d="M397,144.89l.31-.17a4.67,4.67,0,0,0,2.09-3.78V123.09c0-1.45-.93-2.12-2.09-1.49l-.31.17a4.65,4.65,0,0,0-2.09,3.78v17.84C394.88,144.85,395.81,145.52,397,144.89Z" transform="translate(0 -0.86)" fill="#bcd5ff"/><path d="M395.78,148.36l.31-.18a1.43,1.43,0,0,1,1.33-.11h0l1.17.64-.57,0a2.4,2.4,0,0,1,.16.94v17.84a4.65,4.65,0,0,1-2.09,3.78l-.31.17a2.12,2.12,0,0,1-.42.18l.3.6-1.25-.68h0a1.69,1.69,0,0,1-.74-1.59V152.14A4.68,4.68,0,0,1,395.78,148.36Z" transform="translate(0 -0.86)" fill="#e9ffff"/><path d="M397,172.12l.31-.17a4.65,4.65,0,0,0,2.09-3.78V150.33c0-1.46-.93-2.13-2.09-1.5L397,149a4.65,4.65,0,0,0-2.09,3.78v17.84C394.88,172.08,395.81,172.75,397,172.12Z" transform="translate(0 -0.86)" fill="#bcd5ff"/><path d="M236.06,321.21V147.53c5.57-14.63,16.68-28.61,29.49-35.61h0l100.66,55c-18.39,10-33.29,34.48-33.29,54.58V373.59a38,38,0,0,1-.41,5.25L240,328.26A8.72,8.72,0,0,1,236.06,321.21Z" transform="translate(0 -0.86)" fill="#242993" opacity="0.6"/><path d="M237.15,92.71l10.24-5.58h0a.47.47,0,0,1,.51,0l128.32,70.12a1.69,1.69,0,0,1,.76,1.37v22.93a.66.66,0,0,1-.21.54h0l0,0-10.34,5.64-.08-11.08L247.9,112a1.69,1.69,0,0,1-.76-1.37v-7.87Z" transform="translate(0 -0.86)" fill="url(#Áåçûìÿííûé_ãðàäèåíò_35)"/><path d="M237.61,117.61l128.31,70.12c.42.23.76,0,.76-.54V164.26a1.69,1.69,0,0,0-.76-1.37L237.61,92.76c-.42-.22-.76,0-.76.55v22.93A1.71,1.71,0,0,0,237.61,117.61Z" transform="translate(0 -0.86)" fill="url(#Áåçûìÿííûé_ãðàäèåíò_11-4)"/><path d="M255.31,113l99.91,55.61a67.53,67.53,0,0,0-8.7,8.56l-100.65-55A66.79,66.79,0,0,1,255.31,113Z" transform="translate(0 -0.86)" fill="#242993" opacity="0.6"/><path d="M241.27,110.72l121,66.12c.29.16.52,0,.52-.37v-5.76a1.16,1.16,0,0,0-.52-.94l-121-66.12c-.29-.15-.52,0-.52.37v5.76A1.16,1.16,0,0,0,241.27,110.72Z" transform="translate(0 -0.86)" fill="#242993"/><path d="M241.27,103.65l2.46,1.35v3.11a1.15,1.15,0,0,0,.51.93l118.54,64.78v2.65c0,.36-.23.53-.52.37l-121-66.12a1.16,1.16,0,0,1-.52-.94V104C240.75,103.66,241,103.5,241.27,103.65Z" transform="translate(0 -0.86)" fill="#4553c7"/><path d="M291.16,417.68l-100.67-55h0c15.65-8.55,28.33-29.34,28.33-46.43V164.16c0-20.1,14.91-44.53,33.29-54.58h0l100.66,55h0c-18.38,10-33.29,34.49-33.29,54.59V371.24c0,17.1-12.68,37.89-28.32,46.44Z" transform="translate(0 -0.86)" opacity="0.96" fill="url(#Áåçûìÿííûé_ãðàäèåíò_34)"/><path d="M252.11,109.58l100.66,55c-.8.45-1.6.92-2.39,1.42h0L249.72,111C250.51,110.49,251.31,110,252.11,109.58Z" transform="translate(0 -0.86)" fill="#4553c7" opacity="0.8"/><polygon points="365.45 224 369.42 226.17 369.42 223.65 365.45 221.48 365.45 224" fill="#42ffff"/><polygon points="365.45 241.03 369.42 243.2 369.42 228.46 365.45 226.29 365.45 241.03" fill="#42ffff"/><polygon points="365.45 249.17 369.42 251.34 369.42 245.49 365.45 243.32 365.45 249.17" fill="#42ffff"/><polygon points="365.45 257.62 369.42 259.79 369.42 253.94 365.45 251.77 365.45 257.62" fill="#42ffff"/><polygon points="359.53 228.91 363.5 231.08 363.5 225.23 359.53 223.06 359.53 228.91" fill="#42ffff"/><polygon points="359.53 240.09 363.5 242.26 363.5 233.67 359.53 231.5 359.53 240.09" fill="#42ffff"/><polygon points="359.53 250.38 363.5 252.55 363.5 245.18 359.53 243.01 359.53 250.38" fill="#42ffff"/><polygon points="365.45 266.06 369.42 268.23 369.42 262.38 365.45 260.21 365.45 266.06" fill="#42ffff"/><polygon points="359.53 220.76 363.5 222.93 363.5 220.41 359.53 218.24 359.53 220.76" fill="#42ffff"/><polygon points="362.49 272.63 369.42 276.42 369.42 273.98 362.49 270.19 362.49 272.63" fill="#42ffff"/><path d="M517.84,378.67,463.17,348.8c-.93-.51-.82-1.4.26-2l54.14-29.59a4.27,4.27,0,0,1,3.65-.14L575.89,347c.93.51.81,1.41-.27,2l-54.14,29.58A4.21,4.21,0,0,1,517.84,378.67Z" transform="translate(0 -0.86)" fill="#242993" opacity="0.5"/><path d="M519.38,392.09a5.29,5.29,0,0,1-2.52-.56l-76.62-41.87a2,2,0,0,1-1.18-1.7,2.53,2.53,0,0,1,1.55-2.07l75.88-41.47a6.6,6.6,0,0,1,5.71-.2l76.62,41.87A2,2,0,0,1,600,347.8a2.54,2.54,0,0,1-1.55,2.06l-75.88,41.47A6.86,6.86,0,0,1,519.38,392.09Zm.31-87.3a5.67,5.67,0,0,0-2.61.61L441.2,346.87c-.59.33-.95.73-.95,1.09s.32.58.59.73l76.61,41.86a5.33,5.33,0,0,0,4.52-.2l75.88-41.46c.6-.33,1-.74,1-1.09s-.32-.58-.59-.73L521.6,305.2A4.14,4.14,0,0,0,519.69,304.79Z" transform="translate(0 -0.86)" fill="#42ffff"/><path d="M576.51,328.06v-10H559.33l-38.11-20.83a4.27,4.27,0,0,0-3.65.14l-37.94,20.74H462.54v10h0a1,1,0,0,0,.62.83l54.67,29.88a4.25,4.25,0,0,0,3.64-.15l54.14-29.58A1.5,1.5,0,0,0,576.51,328.06Z" transform="translate(0 -0.86)" fill="url(#Áåçûìÿííûé_ãðàäèåíò_13-2)"/><path d="M517.84,348.87,463.17,319c-.93-.51-.82-1.4.26-2l54.14-29.59a4.27,4.27,0,0,1,3.65-.14l54.67,29.87c.93.51.81,1.41-.27,2l-54.14,29.58A4.24,4.24,0,0,1,517.84,348.87Z" transform="translate(0 -0.86)" fill="url(#Áåçûìÿííûé_ãðàäèåíò_11-5)"/><path d="M517.84,348.87,463.17,319c-.93-.51-.82-1.4.26-2l54.14-29.59a4.27,4.27,0,0,1,3.65-.14l54.67,29.87c.93.51.81,1.41-.27,2l-54.14,29.58A4.24,4.24,0,0,1,517.84,348.87Z" transform="translate(0 -0.86)" fill="url(#Áåçûìÿííûé_ãðàäèåíò_11-5)"/><path d="M518,345.38,469.57,318.9c-.83-.46-.72-1.25.24-1.77l48-26.22a3.78,3.78,0,0,1,3.24-.13l48.45,26.48c.83.45.73,1.24-.23,1.76l-48,26.23A3.79,3.79,0,0,1,518,345.38Z" transform="translate(0 -0.86)" fill="#242993"/><path d="M518.15,343.16l-44.52-24.33c-.76-.42-.66-1.14.22-1.62l44.09-24.1a3.45,3.45,0,0,1,3-.11l44.51,24.32c.77.42.67,1.15-.21,1.63L521.12,343A3.49,3.49,0,0,1,518.15,343.16Z" transform="translate(0 -0.86)" fill="#4553c7"/><polygon points="518.5 315.63 513.3 312.79 516.14 311.23 521.35 314.08 518.5 315.63" fill="#42ffff"/><polygon points="528.18 315.23 522.97 318.07 520.13 316.52 525.34 313.68 528.18 315.23" fill="#42ffff"/><polygon points="517.32 316.28 514.48 317.83 511.64 316.28 514.48 314.72 517.32 316.28" fill="#42ffff"/><polygon points="527.15 321.64 524.3 323.2 516.11 318.72 518.95 317.17 527.15 321.64" fill="#42ffff"/><path d="M576.52,304.66l-23.26.13-32-17.51a4.27,4.27,0,0,0-3.65.14l-32.48,17.75-22.55.13v13h0a1.09,1.09,0,0,0,.61.73l54.67,29.87a4.21,4.21,0,0,0,3.64-.14l54.14-29.58a1.58,1.58,0,0,0,.86-.94h0Z" transform="translate(0 -0.86)" fill="#42ffff" opacity="0.4"/><path d="M576.51,305.94V296H559.33l-38.11-20.82a4.27,4.27,0,0,0-3.65.14L479.63,296H462.54v10h0a1,1,0,0,0,.62.83l54.67,29.87a4.24,4.24,0,0,0,3.64-.14L575.62,307A1.48,1.48,0,0,0,576.51,305.94Z" transform="translate(0 -0.86)" fill="url(#Áåçûìÿííûé_ãðàäèåíò_13-3)"/><path d="M517.84,326.76l-54.67-29.87c-.93-.51-.82-1.41.26-2l54.14-29.58a4.27,4.27,0,0,1,3.65-.15L575.89,295c.93.51.81,1.4-.27,2l-54.14,29.59A4.24,4.24,0,0,1,517.84,326.76Z" transform="translate(0 -0.86)" fill="url(#Áåçûìÿííûé_ãðàäèåíò_11-7)"/><path d="M518,323.26l-48.46-26.48c-.83-.45-.72-1.24.24-1.77l48-26.22a3.81,3.81,0,0,1,3.24-.13l48.45,26.48c.83.45.73,1.25-.23,1.77l-48,26.22A3.75,3.75,0,0,1,518,323.26Z" transform="translate(0 -0.86)" fill="#242993"/><path d="M518.15,321l-44.52-24.33c-.76-.41-.66-1.14.22-1.62L517.94,271a3.45,3.45,0,0,1,3-.12l44.51,24.33c.77.41.67,1.14-.21,1.62l-44.09,24.09A3.42,3.42,0,0,1,518.15,321Z" transform="translate(0 -0.86)" fill="#4553c7"/><polygon points="518.5 293.52 513.3 290.67 516.14 289.12 521.35 291.96 518.5 293.52" fill="#42ffff"/><polygon points="528.18 293.11 522.97 295.96 520.13 294.4 525.34 291.56 528.18 293.11" fill="#42ffff"/><polygon points="517.32 294.16 514.48 295.71 511.64 294.16 514.48 292.61 517.32 294.16" fill="#42ffff"/><polygon points="527.15 299.53 524.3 301.08 516.11 296.6 518.95 295.05 527.15 299.53" fill="#42ffff"/><polygon points="419.05 402.6 418.46 401.62 478.84 369.17 479.43 370.14 419.05 402.6" fill="#42ffff"/><g opacity="0.32"><polygon points="282.37 272.71 300.79 282.74 300.78 280.8 282.37 270.77 282.37 272.71" fill="#4553c7"/><polygon points="272.93 267.57 279.56 271.18 279.55 269.24 272.92 265.63 272.93 267.57" fill="#4553c7"/><polygon points="265.61 263.59 270.11 266.04 270.11 264.1 265.6 261.65 265.61 263.59" fill="#4553c7"/><polygon points="290.76 281.71 300.8 287.17 300.79 285.23 290.76 279.77 290.76 281.71" fill="#4553c7"/><polygon points="275.65 273.48 287.95 280.18 287.94 278.23 275.65 271.54 275.65 273.48" fill="#4553c7"/><polygon points="268.33 269.5 272.84 271.95 272.83 270.01 268.33 267.56 268.33 269.5" fill="#4553c7"/><polygon points="261.37 265.71 265.87 268.16 265.87 266.22 261.36 263.77 261.37 265.71" fill="#4553c7"/><polygon points="293.54 287.65 300.8 291.6 300.8 289.66 293.54 285.71 293.54 287.65" fill="#4553c7"/><polygon points="288.25 284.77 290.73 286.12 290.73 284.18 288.25 282.83 288.25 284.77" fill="#4553c7"/><polygon points="280.93 280.78 285.43 283.24 285.43 281.3 280.93 278.84 280.93 280.78" fill="#4553c7"/><polygon points="274.01 281.45 300.81 296.03 300.81 294.09 274.01 279.51 274.01 281.45" fill="#4553c7"/><polygon points="264.57 276.31 271.2 279.92 271.2 277.98 264.56 274.37 264.57 276.31" fill="#4553c7"/><polygon points="293.56 296.51 300.82 300.47 300.82 298.52 293.56 294.57 293.56 296.51" fill="#4553c7"/><polygon points="276.52 287.24 290.75 294.98 290.74 293.04 276.52 285.3 276.52 287.24" fill="#4553c7"/><polygon points="269.2 283.26 273.71 285.71 273.7 283.77 269.2 281.31 269.2 283.26" fill="#4553c7"/><polygon points="285.97 296.81 300.83 304.9 300.82 302.96 285.97 294.87 285.97 296.81" fill="#4553c7"/><polygon points="272.42 289.43 283.16 295.28 283.15 293.34 272.41 287.49 272.42 289.43" fill="#4553c7"/><polygon points="262.34 283.95 269.6 287.9 269.6 285.96 262.34 282.01 262.34 283.95" fill="#4553c7"/><polygon points="295.82 306.6 300.84 309.33 300.83 307.39 295.81 304.66 295.82 306.6" fill="#4553c7"/><polygon points="286.37 301.46 293 305.07 293 303.13 286.37 299.52 286.37 301.46" fill="#4553c7"/><polygon points="272.88 294.11 283.56 299.93 283.56 297.99 272.87 292.17 272.88 294.11" fill="#4553c7"/><polygon points="285.48 305.4 300.84 313.76 300.84 311.82 285.47 303.46 285.48 305.4" fill="#4553c7"/><polygon points="268.26 296.03 282.66 303.87 282.66 301.93 268.26 294.09 268.26 296.03" fill="#4553c7"/><polygon points="260.94 292.05 265.45 294.5 265.44 292.56 260.94 290.11 260.94 292.05" fill="#4553c7"/><polygon points="253.92 288.22 258.42 290.67 258.42 288.73 253.91 286.28 253.92 288.22" fill="#4553c7"/><polygon points="291.64 313.18 300.85 318.2 300.85 316.26 291.64 311.24 291.64 313.18" fill="#4553c7"/><polygon points="245.01 252.38 232.25 245.43 232.24 243.49 245.01 250.44 245.01 252.38" fill="#4553c7"/><polygon points="242.29 255.32 232.25 249.86 232.25 247.92 242.28 253.38 242.29 255.32" fill="#4553c7"/><polygon points="239.52 258.25 232.26 254.29 232.26 252.35 239.52 256.31 239.52 258.25" fill="#4553c7"/><polygon points="242.83 264.48 232.27 258.73 232.27 256.79 242.83 262.53 242.83 264.48" fill="#4553c7"/><polygon points="239.54 267.11 232.28 263.16 232.27 261.22 239.53 265.17 239.54 267.11" fill="#4553c7"/><polygon points="241.49 272.6 232.29 267.59 232.28 265.65 241.49 270.66 241.49 272.6" fill="#4553c7"/><polygon points="237.31 274.76 232.29 272.02 232.29 270.08 237.31 272.81 237.31 274.76" fill="#4553c7"/><polygon points="242.02 281.75 232.3 276.46 232.3 274.52 242.02 279.81 242.02 281.75" fill="#4553c7"/><polygon points="241.52 285.9 232.31 280.89 232.31 278.95 241.51 283.96 241.52 285.9" fill="#4553c7"/><polygon points="284.92 309.52 288.83 311.65 288.83 309.71 284.91 307.58 284.92 309.52" fill="#4553c7"/><polygon points="273.29 303.19 282.1 307.99 282.1 306.05 273.28 301.25 273.29 303.19" fill="#4553c7"/><polygon points="282.37 221.7 300.79 231.73 300.78 229.79 282.37 219.76 282.37 221.7" fill="#4553c7"/><polygon points="272.93 216.56 279.56 220.17 279.55 218.23 272.92 214.62 272.93 216.56" fill="#4553c7"/><polygon points="265.61 212.58 270.11 215.03 270.11 213.09 265.6 210.64 265.61 212.58" fill="#4553c7"/><polygon points="290.76 230.7 300.8 236.16 300.79 234.22 290.76 228.76 290.76 230.7" fill="#4553c7"/><polygon points="275.65 222.47 287.95 229.17 287.94 227.22 275.65 220.53 275.65 222.47" fill="#4553c7"/><polygon points="268.33 218.49 272.84 220.94 272.83 219 268.33 216.55 268.33 218.49" fill="#4553c7"/><polygon points="261.37 214.7 265.87 217.15 265.87 215.21 261.36 212.76 261.37 214.7" fill="#4553c7"/><polygon points="293.54 236.64 300.8 240.59 300.8 238.65 293.54 234.7 293.54 236.64" fill="#4553c7"/><polygon points="288.25 233.76 290.73 235.11 290.73 233.17 288.25 231.82 288.25 233.76" fill="#4553c7"/><polygon points="280.93 229.77 285.43 232.23 285.43 230.29 280.93 227.83 280.93 229.77" fill="#4553c7"/><polygon points="274.01 230.44 300.81 245.02 300.81 243.08 274.01 228.5 274.01 230.44" fill="#4553c7"/><polygon points="264.57 225.3 271.2 228.91 271.2 226.97 264.56 223.36 264.57 225.3" fill="#4553c7"/><polygon points="293.56 245.5 300.82 249.46 300.82 247.52 293.56 243.56 293.56 245.5" fill="#4553c7"/><polygon points="276.52 236.23 290.75 243.97 290.74 242.03 276.52 234.29 276.52 236.23" fill="#4553c7"/><polygon points="269.2 232.25 273.71 234.7 273.7 232.76 269.2 230.31 269.2 232.25" fill="#4553c7"/><polygon points="285.97 245.8 300.83 253.89 300.82 251.95 285.97 243.86 285.97 245.8" fill="#4553c7"/><polygon points="272.42 238.43 283.16 244.27 283.15 242.33 272.41 236.49 272.42 238.43" fill="#4553c7"/><polygon points="262.34 232.94 269.6 236.89 269.6 234.95 262.34 231 262.34 232.94" fill="#4553c7"/><polygon points="295.82 255.59 300.84 258.32 300.83 256.38 295.81 253.65 295.82 255.59" fill="#4553c7"/><polygon points="286.37 250.45 293 254.06 293 252.12 286.37 248.51 286.37 250.45" fill="#4553c7"/><polygon points="272.88 243.1 283.56 248.92 283.56 246.98 272.87 241.16 272.88 243.1" fill="#4553c7"/><polygon points="285.48 254.39 300.84 262.75 300.84 260.81 285.47 252.45 285.48 254.39" fill="#4553c7"/><polygon points="268.26 245.02 282.66 252.86 282.66 250.92 268.26 243.08 268.26 245.02" fill="#4553c7"/><polygon points="260.94 241.04 265.45 243.49 265.44 241.55 260.94 239.1 260.94 241.04" fill="#4553c7"/><polygon points="253.92 237.21 258.42 239.66 258.42 237.72 253.91 235.27 253.92 237.21" fill="#4553c7"/><polygon points="291.64 262.18 300.85 267.19 300.85 265.25 291.64 260.24 291.64 262.18" fill="#4553c7"/><polygon points="245.01 201.37 232.25 194.42 232.24 192.48 245.01 199.43 245.01 201.37" fill="#4553c7"/><polygon points="242.29 204.31 232.25 198.85 232.25 196.91 242.28 202.37 242.29 204.31" fill="#4553c7"/><polygon points="239.52 207.24 232.26 203.28 232.26 201.34 239.52 205.3 239.52 207.24" fill="#4553c7"/><polygon points="242.83 213.47 232.27 207.72 232.27 205.78 242.83 211.53 242.83 213.47" fill="#4553c7"/><polygon points="239.54 216.1 232.28 212.15 232.27 210.21 239.53 214.16 239.54 216.1" fill="#4553c7"/><polygon points="241.49 221.59 232.29 216.58 232.28 214.64 241.49 219.65 241.49 221.59" fill="#4553c7"/><polygon points="237.31 223.75 232.29 221.02 232.29 219.07 237.31 221.81 237.31 223.75" fill="#4553c7"/><polygon points="242.02 230.74 232.3 225.45 232.3 223.51 242.02 228.8 242.02 230.74" fill="#4553c7"/><polygon points="241.52 234.89 232.31 229.88 232.31 227.94 241.51 232.95 241.52 234.89" fill="#4553c7"/><polygon points="284.92 258.51 288.83 260.64 288.83 258.7 284.91 256.57 284.92 258.51" fill="#4553c7"/><polygon points="273.29 252.18 282.1 256.98 282.1 255.04 273.28 250.24 273.29 252.18" fill="#4553c7"/><polygon points="263.25 320.81 278.12 328.9 278.12 326.96 263.24 318.86 263.25 320.81" fill="#4553c7"/><polygon points="253.06 315.26 258.92 318.45 258.91 316.51 253.05 313.32 253.06 315.26" fill="#4553c7"/></g><path d="M182.21,421a7.73,7.73,0,0,1-3.66-.92l-31.92-17.45a2.9,2.9,0,0,1,0-5.16L178.55,380a7.67,7.67,0,0,1,7.32,0l31.93,17.44a2.94,2.94,0,0,1,1.57,2.58,2.91,2.91,0,0,1-1.57,2.58L185.88,420A7.74,7.74,0,0,1,182.21,421Zm0-40.77a6.43,6.43,0,0,0-3.06.77L147.22,398.4a1.8,1.8,0,0,0,0,3.2l31.93,17.45a6.47,6.47,0,0,0,6.13,0L217.2,401.6a1.8,1.8,0,0,0,0-3.2L185.28,381A6.5,6.5,0,0,0,182.21,380.18Z" transform="translate(0 -0.86)" fill="#42ffff"/><path d="M505.06,242.12a7.84,7.84,0,0,1-3.78-1l-32.39-17.7a2.55,2.55,0,0,1,0-4.52l9.9-5.36a8,8,0,0,1,7.57,0l32.38,17.7a2.54,2.54,0,0,1,0,4.52l-9.89,5.36A7.9,7.9,0,0,1,505.06,242.12Zm-22.49-28.37a6.63,6.63,0,0,0-3.19.81l-9.89,5.36a1.45,1.45,0,0,0,0,2.57l32.38,17.69a6.71,6.71,0,0,0,6.39,0l9.89-5.36a1.46,1.46,0,0,0,.78-1.28,1.43,1.43,0,0,0-.78-1.28l-32.38-17.7A6.67,6.67,0,0,0,482.57,213.75Z" transform="translate(0 -0.86)" fill="#42ffff"/><path d="M481,256.3a7.9,7.9,0,0,1-3.79-1l-32.38-17.69a2.54,2.54,0,0,1,0-4.52l9.89-5.36a8,8,0,0,1,7.58,0l32.38,17.69a2.54,2.54,0,0,1,0,4.52l-9.89,5.36A7.9,7.9,0,0,1,481,256.3ZM458.5,227.94a6.74,6.74,0,0,0-3.19.8l-9.89,5.36a1.45,1.45,0,0,0,0,2.57l32.38,17.69a6.69,6.69,0,0,0,6.38,0l9.89-5.36a1.44,1.44,0,0,0,.79-1.28,1.47,1.47,0,0,0-.79-1.28l-32.38-17.7A6.74,6.74,0,0,0,458.5,227.94Z" transform="translate(0 -0.86)" fill="#42ffff"/><path d="M154.25,436.23a7.9,7.9,0,0,1-3.79-1l-32.38-17.69a2.55,2.55,0,0,1,0-4.53L128,407.7a8,8,0,0,1,7.58,0l32.38,17.69a2.54,2.54,0,0,1,0,4.52L158,435.27A7.9,7.9,0,0,1,154.25,436.23Zm-22.49-28.36a6.62,6.62,0,0,0-3.19.8L118.68,414a1.45,1.45,0,0,0,0,2.57l32.38,17.69a6.69,6.69,0,0,0,6.38,0l9.89-5.36a1.43,1.43,0,0,0,0-2.56L135,408.67A6.62,6.62,0,0,0,131.76,407.87Z" transform="translate(0 -0.86)" fill="#42ffff"/><path d="M129.22,450a7.9,7.9,0,0,1-3.79-1L93.05,431.35a2.54,2.54,0,0,1,0-4.52l9.89-5.36a8,8,0,0,1,7.58,0l32.38,17.69a2.56,2.56,0,0,1,1.37,2.26,2.53,2.53,0,0,1-1.37,2.26L133,449A7.9,7.9,0,0,1,129.22,450Zm-22.49-28.36a6.61,6.61,0,0,0-3.19.81l-9.9,5.35a1.44,1.44,0,0,0,0,2.57L126,448.07a6.74,6.74,0,0,0,6.38,0l9.89-5.36a1.45,1.45,0,0,0,0-2.57l-32.38-17.69A6.66,6.66,0,0,0,106.73,421.64Z" transform="translate(0 -0.86)" fill="#42ffff"/></svg>