<svg id="Слой_1" data-name="Слой 1" xmlns="http://www.w3.org/2000/svg" xmlns:xlink="http://www.w3.org/1999/xlink" viewBox="0 0 2088.91 1697.34"><defs><linearGradient id="linear-gradient" x1="-2378.66" y1="1468.72" x2="-2421.32" y2="695.56" gradientTransform="matrix(0.54, 0, 0, -1, 2604.58, 1523.14)" gradientUnits="userSpaceOnUse"><stop offset="0" stop-color="#d1d7e0"/><stop offset="1" stop-color="#ebebff"/></linearGradient><linearGradient id="linear-gradient-2" x1="-1102.15" y1="1652.52" x2="-1102.15" y2="883.93" gradientTransform="matrix(0.54, 0, 0, -1, 1187.36, 2208.89)" xlink:href="#linear-gradient"/><linearGradient id="linear-gradient-3" x1="-4312.74" y1="1874.6" x2="-648.88" y2="1874.6" gradientTransform="matrix(-0.54, 0, 0, 1, 0, 0)" gradientUnits="userSpaceOnUse"><stop offset="0.01" stop-color="#1a2257"/><stop offset="1" stop-color="#5e60f2"/></linearGradient><linearGradient id="linear-gradient-4" x1="-2417.68" y1="1177.9" x2="-2417.68" y2="615.9" gradientTransform="matrix(-0.54, 0, 0, 1, -234.17, -223.63)" xlink:href="#linear-gradient"/><linearGradient id="linear-gradient-5" x1="836.65" y1="1499.73" x2="1072.2" y2="1499.73" gradientTransform="translate(1425.03) scale(0.54 1)" xlink:href="#linear-gradient-3"/><linearGradient id="linear-gradient-6" x1="1019.66" y1="1604.88" x2="1447.89" y2="1604.88" gradientTransform="translate(1425.03) scale(0.54 1)" xlink:href="#linear-gradient-3"/><linearGradient id="linear-gradient-7" x1="1056.27" y1="1638.56" x2="1377.68" y2="1638.56" gradientTransform="translate(1425.03) scale(0.54 1)" xlink:href="#linear-gradient-3"/><linearGradient id="linear-gradient-8" x1="667.75" y1="1461.99" x2="1150.41" y2="1461.99" gradientTransform="translate(1425.03) scale(0.54 1)" xlink:href="#linear-gradient-3"/><linearGradient id="linear-gradient-9" x1="-3685.85" y1="1765.16" x2="-3847.75" y2="1279.44" xlink:href="#linear-gradient-3"/><linearGradient id="linear-gradient-10" x1="-3758.92" y1="2077.67" x2="-3672.27" y2="1704.17" gradientTransform="matrix(-0.54, 0, 0, 1, -234.17, -223.63)" gradientUnits="userSpaceOnUse"><stop offset="0" stop-color="#c9c4c1"/><stop offset="1" stop-color="#fff6de"/></linearGradient><linearGradient id="linear-gradient-11" x1="-3864.79" y1="1789.05" x2="-3519.38" y2="1789.05" gradientTransform="matrix(-0.54, 0, 0, 1, -10.52, 0)" xlink:href="#linear-gradient-10"/><linearGradient id="linear-gradient-12" x1="-1475.93" y1="702.77" x2="-1475.93" y2="386.19" gradientTransform="matrix(0.54, 0, 0, -1, 1590.03, 954.04)" xlink:href="#linear-gradient"/><linearGradient id="linear-gradient-13" x1="-648.63" y1="557.53" x2="-575.84" y2="557.53" gradientTransform="matrix(-0.54, 0, 0, 1, -234.17, -223.63)" xlink:href="#linear-gradient"/><linearGradient id="linear-gradient-14" x1="-674.71" y1="557.53" x2="-644.37" y2="557.53" gradientTransform="matrix(-0.54, 0, 0, 1, -234.17, -223.63)" xlink:href="#linear-gradient"/><linearGradient id="linear-gradient-15" x1="-857.71" y1="539.52" x2="-624.53" y2="539.52" gradientTransform="matrix(-0.54, 0, 0, 1, -234.17, -223.63)" xlink:href="#linear-gradient"/><linearGradient id="linear-gradient-16" x1="-2152.67" y1="231.42" x2="-2057.04" y2="231.42" gradientTransform="matrix(-0.54, 0, 0, 1, 0, 0)" xlink:href="#linear-gradient"/><linearGradient id="linear-gradient-17" x1="-2152.67" y1="268.8" x2="-2057.04" y2="268.8" gradientTransform="matrix(-0.54, 0, 0, 1, 0, 0)" xlink:href="#linear-gradient"/><linearGradient id="linear-gradient-18" x1="-2152.67" y1="306.17" x2="-2057.04" y2="306.17" gradientTransform="matrix(-0.54, 0, 0, 1, 0, 0)" xlink:href="#linear-gradient"/><linearGradient id="linear-gradient-19" x1="-2017.55" y1="231.42" x2="-1990.34" y2="231.42" gradientTransform="matrix(-0.54, 0, 0, 1, 0, 0)" xlink:href="#linear-gradient"/><linearGradient id="linear-gradient-20" x1="-2017.55" y1="268.8" x2="-1990.34" y2="268.8" gradientTransform="matrix(-0.54, 0, 0, 1, 0, 0)" xlink:href="#linear-gradient"/><linearGradient id="linear-gradient-21" x1="-2017.55" y1="306.17" x2="-1990.34" y2="306.17" gradientTransform="matrix(-0.54, 0, 0, 1, 0, 0)" xlink:href="#linear-gradient"/><linearGradient id="linear-gradient-22" x1="-2455.66" y1="1105.91" x2="-2325" y2="1105.91" gradientTransform="matrix(-0.54, 0, 0, 1, -234.17, -223.63)" xlink:href="#linear-gradient"/><linearGradient id="linear-gradient-23" x1="-2502.48" y1="1105.91" x2="-2448.02" y2="1105.91" gradientTransform="matrix(-0.54, 0, 0, 1, -234.17, -223.63)" xlink:href="#linear-gradient"/></defs><title>profile</title><rect x="1039.61" y="497.84" width="525.36" height="527.46" rx="58.67" transform="translate(2370.41 1299.51) rotate(180)" opacity="0.95" fill="url(#linear-gradient)"/><rect x="1180.68" y="905.22" width="243.23" height="12.06" transform="translate(2370.41 1598.87) rotate(180)" fill="#96bfe6"/><rect x="1215.13" y="943.23" width="174.33" height="12.06" transform="translate(2370.41 1674.9) rotate(180)" fill="#96bfe6"/><rect x="234.17" y="680.78" width="719.01" height="847.34" rx="69.12" transform="translate(953.19 1985.27) rotate(180)" opacity="0.95" fill="url(#linear-gradient-2)"/><rect x="335.98" y="957.03" width="57.03" height="10.6" fill="#4598e6"/><rect x="511.85" y="1277.82" width="331.83" height="20.53" transform="translate(1121.36 2352.55) rotate(180)" fill="#96bfe6"/><rect x="575.34" y="1376.39" width="268.34" height="20.53" transform="translate(1184.85 2549.68) rotate(180)" fill="#96bfe6"/><rect x="686.37" y="1327.1" width="157.31" height="20.53" transform="translate(1295.88 2451.11) rotate(180)" fill="#96bfe6"/><path d="M425,765.28v10.36h-60.8v57.3H353.9V765.28ZM838,832.94H827.64v-57.3H766.83V765.28H838ZM364.23,1128.6v57.32H425v10.37H353.9V1128.6Zm463.41,0H838v67.69H766.83v-10.37h60.81Z" transform="translate(-234.17 -223.63)" fill="#4598e6"/><path d="M386.09,1398.43a61.06,61.06,0,1,0-60.81-61.06A61,61,0,0,0,386.09,1398.43Zm0-110.3a49.24,49.24,0,1,1-49,49.24A49.2,49.2,0,0,1,386.09,1288.13Z" transform="translate(-234.17 -223.63)" fill="#4598e6"/><polygon points="155.8 1137.78 183.43 1110.04 175.11 1101.68 155.8 1121.06 128.74 1093.89 120.42 1102.25 155.8 1137.78" fill="#4598e6"/><path d="M349.52,1874.6c0,25.61,441.8,46.37,986.78,46.37s986.78-20.76,986.78-46.37-441.8-46.37-986.78-46.37S349.52,1849,349.52,1874.6Z" transform="translate(-234.17 -223.63)" fill="url(#linear-gradient-3)"/><rect x="891.07" y="293.93" width="354.11" height="305.04" opacity="0.95" fill="url(#linear-gradient-4)"/><path d="M1999.77,1739.42c-29.48-20.81-64-165.88-66-252.29-1-44.26-14.09-62.7-25.58-79-11-15.55-20.48-29-15-59.82,10.57-58.93-17.21-84.37-17.49-84.62l3.21-3.68c1.24,1.08,30.17,27.32,19.08,89.17-5.16,28.81,3.35,40.86,14.13,56.12,11.31,16,25.39,35.93,26.48,81.68,2.21,92.73,37.49,229.71,64,248.41Z" transform="translate(-234.17 -223.63)" fill="url(#linear-gradient-5)"/><path d="M2061.57,1697.11c2.78-6.33,5.66-12.88,8.92-19.79,16.85-35.7,31.76-41.58,56.48-51.31,6-2.38,12.89-5.08,20.4-8.47,35.41-16,28.55-39.52,22.5-60.29-.84-2.91-1.69-5.8-2.42-8.67-3.11-12.22,2.87-18.35,11.93-27.62,6.73-6.9,15.11-15.48,21.56-29,7.07-14.84,3.47-22.79-.8-26.85-9-8.55-29.69-7-49.25,3.75-6.07,3.33-11.07,8.58-16.37,14.15-12.46,13.1-28,29.41-67.21,29.6-22.37.1-34.63,3.2-41,10.37-7.2,8.12-5.84,20.29-4,37.12.65,5.83,1.38,12.43,1.83,19.56,2.67,42.55-22.34,73.24-22.59,73.54-14.95,17.87-33.36,54.94-25.41,77.76,3.33,9.56,10.78,15.58,22.14,17.89a62.71,62.71,0,0,0,12.47,1.36C2038.25,1750.18,2048.29,1727.33,2061.57,1697.11Zm91.66-224c17.46-9.57,36.19-11.5,43.56-4.49,5.6,5.33,3,14.46-.25,21.18-6.1,12.82-13.83,20.74-20.64,27.72-9.48,9.71-17,17.38-13.17,32.26.74,2.92,1.6,5.87,2.46,8.83,6,20.69,11.72,40.22-19.82,54.45-7.4,3.34-14.19,6-20.18,8.38-25,9.83-41.43,16.32-59.1,53.77-3.29,7-6.18,13.55-9,19.91-15.25,34.71-24.46,55.66-57.8,48.89-9.56-1.94-15.79-6.89-18.51-14.71-7-20.11,9.75-55.31,24.55-73,1.08-1.3,26.51-32.43,23.72-77-.46-7.25-1.2-13.91-1.86-19.79-1.73-15.58-3-26.83,2.77-33.33,5.26-5.94,16.78-8.63,37.35-8.73,41.31-.19,57.62-17.33,70.72-31.11,5.24-5.51,9.77-10.27,15.18-13.24Z" transform="translate(-234.17 -223.63)" fill="url(#linear-gradient-6)"/><path d="M1998.87,1778.44l-4.87-.26c.24-4.59,6.38-112.85,49.67-144.54,47.5-34.76,62.48-72.12,69.61-97.19,8.41-29.55,51.18-37.44,53-37.77l.85,4.82c-.42.08-41.6,7.7-49.16,34.29-7.33,25.77-22.71,64.16-71.42,99.81C2005.11,1667.92,1998.92,1777.34,1998.87,1778.44Z" transform="translate(-234.17 -223.63)" fill="url(#linear-gradient-7)"/><path d="M2007.11,1802.79c10.19-5.1,9.82-25.58,9.26-56.58-.71-39.17-1.68-92.82,18.75-142.16,21.69-52.42,2.34-67.74-16.37-82.56-21-16.59-40.76-32.27-2.76-103,17.45-32.49,23-54.47,17.43-69.16-5.49-14.53-20.89-20.19-37.2-26.18-28.15-10.34-60.06-22.07-55.94-81.89,1.27-18.33-.88-29.61-6.75-35.49-6.39-6.38-15.79-5.69-26.68-4.89-16.45,1.21-35.09,2.58-51.32-18.69-1.69-5.31-17.21-52.74-35.77-60.86a13.14,13.14,0,0,0-11.36.06h0c-12.82,6.16-20.25,13.46-22.74,22.32-4.32,15.41,6.93,32.8,19.95,52.93,20.46,31.63,43.65,67.49,19.6,110.15-31.81,56.42-15,76.16,8.24,103.49,13.32,15.65,28.42,33.39,38.51,62.33,8.12,23.28-5.73,45.47-19.12,66.93-16.8,26.93-34.16,54.76,2.41,78.92,60.46,39.94,120.17,170.31,120.77,171.62l.25.55.46.36c11.14,8.77,19.25,13,25.36,13A11.12,11.12,0,0,0,2007.11,1802.79Zm-149.18-188.44c-32.59-21.52-17.93-45-1-72.23,13.36-21.39,28.49-45.65,19.59-71.14-10.39-29.81-25.8-47.92-39.4-63.9-22.78-26.78-37.83-44.46-7.71-97.89,25.51-45.26.41-84.06-19.75-115.24-12.38-19.13-23.07-35.65-19.34-48.93,2.08-7.43,8.67-13.72,20.14-19.23h0a8.34,8.34,0,0,1,7.31,0c17.22,7.53,33,57.74,33.2,58.25l.13.41.25.34c17.89,23.73,38.92,22.19,55.82,21,10.09-.75,18.07-1.33,22.87,3.47s6.48,15.1,5.34,31.69c-4.38,63.48,30.83,76.42,59.12,86.82,15.9,5.84,29.63,10.88,34.33,23.31,5,13.27-.44,34-17.17,65.11-39.94,74.37-17.59,92.07,4,109.18,18.08,14.32,35.16,27.84,14.88,76.84-20.81,50.29-19.83,104.53-19.12,144.13.49,27,.87,48.39-6.56,52.1-4.34,2.18-12.66-1.49-24.72-10.91C1975.37,1776.94,1918.18,1654.15,1857.93,1614.35Z" transform="translate(-234.17 -223.63)" fill="url(#linear-gradient-8)"/><path d="M2102.55,1234.55c-30.78-10.6-24.38,49-37.39,93s-144.65,19.22-89.39,129.55-69.89,36.9-32.51,133.18,3.26,199.24,43.89,173,22.83-147.43,65.08-161.84,49.16-31.2,7.32-70.37,109.63-78,72.25-157.12S2138.1,1246.79,2102.55,1234.55Z" transform="translate(-234.17 -223.63)" fill="url(#linear-gradient-9)"/><path d="M2001.31,1757c-3.87-16.48-36.92-161.53-6.08-179.06,27.18-15.46,26.51-75.56,22.27-132.32-3.75-50.24,60.51-73.72,63.25-74.69l1.63,4.61c-.63.23-63.49,23.21-60,69.72,4.36,58.29,4.82,120.14-24.73,136.94-23.41,13.31-1.85,129.88,8.43,173.67Z" transform="translate(-234.17 -223.63)" fill="#fff"/><polygon points="1651.04 1481.74 1694.97 1649.1 1793.16 1649.1 1837.09 1481.74 1651.04 1481.74" fill="url(#linear-gradient-10)"/><path d="M1885.21,1705.37s96.72,18.23,96.72,167.35h45.4l43.93-167.35Z" transform="translate(-234.17 -223.63)" fill="url(#linear-gradient-11)"/><rect x="602.02" y="302.51" width="385.98" height="349.02" rx="48.23" transform="translate(1355.86 730.41) rotate(180)" opacity="0.95" fill="url(#linear-gradient-12)"/><rect x="547" y="361.89" width="30.61" height="5.69" fill="#4598e6"/><path d="M703.27,365.67v5.57H670.63V402h-5.54V365.67ZM924.94,402H919.4V371.24H886.76v-5.57h38.18ZM670.63,560.71v30.77h32.64v5.57H665.09V560.71Zm248.77,0h5.54v36.34H886.76v-5.57H919.4Z" transform="translate(-234.17 -223.63)" fill="#4598e6"/><rect x="1047.68" y="622.65" width="40.89" height="7.6" fill="#4598e6"/><path d="M1179.75,552.63v7.44h-43.6v41.08h-7.4V552.63Zm296.09,48.52h-7.41V560.07h-43.6v-7.44h51Zm-339.69,212v41.1h43.6v7.43h-51V813.15Zm332.28,0h7.41v48.53h-51v-7.43h43.6Z" transform="translate(-234.17 -223.63)" fill="#4598e6"/><path d="M376.54,1086h68.21c4.49-32.79,10-70.23,10-70.23s2.76,30.89,6.11,70.23h273c2.49-35.37,5.49-61.84,6.57-62.38,1.57-.79,11.3,30.59,19.39,62.38h73.88c-19-82.2-54.45-214.06-74.94-222-29.17-11.27-148.13-48.07-148.13-48.07H542.71s-120.64,34.55-131.86,72.12C401.93,918,382.25,1016.71,376.54,1086Z" transform="translate(-234.17 -223.63)" fill="#e65353"/><path d="M573.53,594.82s-63.39,10-53.74,109.6,65.6,91.41,69.34,91.31,56.16,1.82,60.25-119.76C649.38,676,651.16,586.07,573.53,594.82Z" transform="translate(-234.17 -223.63)" fill="#eea987"/><path d="M543.94,766.4s1.74,41-2.21,49.82,52.31,37.35,86.62,5.61c0,0-8.29-44.51-6-60.28S543.94,766.4,543.94,766.4Z" transform="translate(-234.17 -223.63)" fill="#eea987"/><path d="M518.81,676.29s-6.94-7.44-9.49.09,10.77,41.21,9.9,42.72c0,0,1.27,2.92,2.94,1.31S518.81,676.29,518.81,676.29Z" transform="translate(-234.17 -223.63)" fill="#eea987"/><path d="M648.66,675s6.8-7.58,9.49-.09-10,41.41-9.07,42.9c0,0-1.21,2.95-2.91,1.37S648.66,675,648.66,675Z" transform="translate(-234.17 -223.63)" fill="#eea987"/><path d="M518.84,691.56l9.08,12.18s-.26-26.7,1.19-30.89,3.69-17,4.91-20,54.43-18,101.44,4.37c0,0-2.07,19.2,2.44,20.91s2.29,31.27,2.29,31.27l7.46-8.45s11.42-76.61,8.6-84.59-11.8-56-108.24-27.5c0,0-30.07-6.39-36.1,14.45S518.84,691.56,518.84,691.56Z" transform="translate(-234.17 -223.63)" fill="#d98b52"/><path d="M541.73,816.22s-14.3,3.07,45.55,60.65c0,0,42.45-47.14,41.07-55S541.73,816.22,541.73,816.22Z" transform="translate(-234.17 -223.63)" fill="#eea987"/><polygon points="353.11 653.25 336.77 681.29 288.32 598.7 309.3 584 353.11 653.25" fill="#b84343"/><polygon points="353.11 653.25 392.74 589.93 415.21 604.42 374.93 681.29 353.11 653.25" fill="#b84343"/><path d="M599.56,1052.3c-.49,9.34-.7,20.79-.73,33.66h2.25c0-12.82.24-24.24.73-33.55,3.67-70.25-13.28-155.73-13.39-175.76l-2.19.43C586.34,897.12,603.24,982.35,599.56,1052.3Z" transform="translate(-234.17 -223.63)" fill="#b84343"/><path d="M616.47,784s-15.06,16-36.34,11.72-30.71-14-30.71-14,8.39,21.15,33,23.08S616.47,784,616.47,784Z" transform="translate(-234.17 -223.63)" fill="#c78d71"/><path d="M1350.94,555.45l.15,0c1.43-.35,3.69-7.23,4.13-8.61.11-.37.33-1.07.64-2,1.78-5.51,5.93-18.41,4.31-23.36-.51-1.56-1.31-2.46-2.37-2.68-2.27-.47-4.87,2.43-5,2.55l-.06.06v.09c-.59,5.43-3.47,32.57-2.23,33.82A.59.59,0,0,0,1350.94,555.45Zm6.34-36.23a2,2,0,0,1,.42,0c.86.18,1.53,1,2,2.34,1.56,4.78-2.71,18-4.32,23-.31,1-.53,1.66-.64,2-1,3.3-2.91,8.05-3.75,8.25,0,0,0,0-.08,0-.79-1.07,1-21,2.37-33.3C1353.61,521.22,1355.55,519.22,1357.28,519.22Z" transform="translate(-234.17 -223.63)" fill="#eea886"/><path d="M1303.82,447.23s-34.89-3.67-47.46,30.16-24.41,44.91-25.9,62.68c-6,71.89-39.43,55.63-30,97.07s15.91,47.7,15.91,47.7l79.94-15.73,81,.26s-31.68-15.89-24.63-49.72,24.63-89.28,14.7-127S1324.68,450.12,1303.82,447.23Z" transform="translate(-234.17 -223.63)" fill="#16202e"/><path d="M1261.21,555.45a.59.59,0,0,0,.42-.18c1.24-1.25-1.64-28.39-2.23-33.82v-.09l-.05-.06c-.11-.12-2.72-3-5-2.55-1.06.22-1.86,1.12-2.37,2.68-1.62,5,2.54,17.85,4.31,23.36.31,1,.53,1.66.63,2,.45,1.39,2.71,8.27,4.14,8.62Zm-2.32-33.86c1.34,12.34,3.16,32.23,2.37,33.31,0,0,0,0-.07,0-.85-.2-2.71-4.95-3.77-8.26-.1-.37-.32-1.06-.63-2-1.61-5-5.88-18.25-4.32-23,.45-1.37,1.12-2.16,2-2.34C1256.27,518.89,1258.51,521.18,1258.89,521.59Z" transform="translate(-234.17 -223.63)" fill="#eea886"/><path d="M1139.76,770.45h49.81c10.33-18.9,18.72-33.68,18.72-33.68s6.71,12.3,11.92,33.68H1387.9a146.39,146.39,0,0,0,2.18-35.23s9,16.26,19.36,35.23h56.33c-15-28.11-43-79.28-49.33-86-8-8.41-54.32-40.56-87.4-51s-51.91-.37-51.91-.37-34,6.15-65.4,18.66C1199.38,656.65,1165.26,719.92,1139.76,770.45Z" transform="translate(-234.17 -223.63)" fill="#faa146"/><path d="M1299.22,467s-46.21,6.69-39.45,75.19,47.55,63,50.28,63,40.92,1.42,44.22-82.16C1354.27,523.05,1355.81,461.25,1299.22,467Z" transform="translate(-234.17 -223.63)" fill="#8e4f3a"/><path d="M1278.69,593.06s2.86,35.62-4,46.3,5.85,25.16,32,20.2,24.61-19.82,24.61-19.82-7.31-22-5.18-39.59S1278.69,593.06,1278.69,593.06Z" transform="translate(-234.17 -223.63)" fill="#8e4f3a"/><path d="M1304.51,491.84s-21.6,22.79-31.63,34.33S1261.7,560,1261.7,560s-16.89-20.72-9.83-44.85,23.78-71.08,66.1-56.65,43.89,77.89,38.92,109.36C1356.89,567.87,1337.9,498.4,1304.51,491.84Z" transform="translate(-234.17 -223.63)" fill="#16202e"/><path d="M1262.46,636.21s32,81.5,51.53,95.66c0,0,25.59-83.12,23.8-95.29C1337.79,636.58,1299.19,621.4,1262.46,636.21Z" transform="translate(-234.17 -223.63)" fill="#8e4f3a"/><path d="M1330.19,616.5s57.13,51,42.3,82.88c-12.65,27.17-57.52,10.51-50.12-18S1330.19,616.5,1330.19,616.5Z" transform="translate(-234.17 -223.63)" fill="#16202e"/><path d="M1322.72,602.1s-19.69,9.35-38.86-4.46a25,25,0,0,0,19.43,12.61C1317.39,611.82,1322.72,602.1,1322.72,602.1Z" transform="translate(-234.17 -223.63)" fill="#633029"/><path d="M815.64,413.58s19,71.59,22.9,87.73c1.18,4.85,5,13.25,9.8,22.83,0,.07.07.14.12.23a18.27,18.27,0,0,1,1.77,5.81c.77,6-1.52,10.68,2.44,17.76l.71,3h37.51c-4.38-13-9.94-29.67-14.38-43-3.74-11.3-6.68-20.28-7.47-22.88-2.31-7.76-10.82-32.91-18-49.61-2.52-5.81-12.24-11.56-20.84-15.72C822.46,416,815.64,413.58,815.64,413.58Z" transform="translate(-234.17 -223.63)" fill="#323657"/><path d="M840.73,311.31s12-77.65-52.1-76.21-63.19,39.83-62,77.93,25.68,35.25-2,88.25,24,53,24,53L788.63,399Z" transform="translate(-234.17 -223.63)" fill="#fccca2"/><path d="M795.64,242.55s43.38,6.87,45.09,68.76-11.7,75.07-49.66,62.18-49.94-77.65-50.79-87.68S737.14,235.1,795.64,242.55Z" transform="translate(-234.17 -223.63)" fill="#eea886"/><path d="M719.46,457.82c-.16,21.3,24.23,72.24,28,88,.45,1.83.92,3.53,1.4,5.12H867.24c.61-7.34,1.19-13.62,1.48-17.16.94-11.63,12.68-36.7,12.28-48.36-.41-11.89-6.21-22.16-14.34-34.85-2.52-3.93-5.18-7.94-7.82-11.84-8.63-12.69-17.23-24.22-21.46-28.19a69.25,69.25,0,0,0-8.63-6.91l0,0a39.62,39.62,0,0,0-8.9-4.7l-37.28-6s-23.24,8.45-36.61,11.58C745.94,404.48,719.85,408.31,719.46,457.82Z" transform="translate(-234.17 -223.63)" fill="#e55353"/><path d="M828.72,403.59l21.61,34.19,19.95,31.56c0-.17-1.38-4.94-3.63-18.78-.43-2.63-.89-5.58-1.38-8.89a24.34,24.34,0,0,0-.63-2.91h0c-8.53-19.76-34.93-34.65-35.89-35.15Z" transform="translate(-234.17 -223.63)" fill="#e55353"/><path d="M766.67,345.61c3.76,7.13,7.73,51.39,7.73,51.39s53.06,20.13,47.63,8.74c-2.46-5.17-3.19-11.87-3.24-17.66a86,86,0,0,1,.59-10.75c.14-1.16.25-1.83.25-1.83S762.91,338.48,766.67,345.61Z" transform="translate(-234.17 -223.63)" fill="#eea886"/><path d="M813.33,287s-22.26,36.39-42.52,50.72-10,25.78-10,25.78S708,251.72,758.22,244s81.09-8.31,82.51,67.33C840.73,311.31,817.9,286.39,813.33,287Z" transform="translate(-234.17 -223.63)" fill="#fccca2"/><path d="M789.13,372.78c8.14,12.06,29.66,15.3,29.66,15.3h0a86,86,0,0,1,.59-10.75C805.56,380,789.13,372.78,789.13,372.78Z" transform="translate(-234.17 -223.63)" fill="#a77860"/><path d="M864.55,438.52h0s1.16,2.4,2.1,12l-7.81-11.84s-14-20.09-18.74-25.32a79.62,79.62,0,0,0-11.35-9.8S856.21,416.85,864.55,438.52Z" transform="translate(-234.17 -223.63)" fill="#ebeeff"/><path d="M759,468.48s-34.05-13.41-44.12-14.19c0,0,6.85-54.9,40.3-49.08S759,468.48,759,468.48Z" transform="translate(-234.17 -223.63)" fill="#e55353"/><path d="M819.84,398.88s25,38.6,16.53,42-54.27-4.5-73.75-41.16C762.62,399.69,791.75,384.7,819.84,398.88Z" transform="translate(-234.17 -223.63)" fill="#eea886"/><path d="M714.84,454.3c1.74,30.26,10.29,59,17.35,85.31,1,3.81,2,7.59,2.93,11.31h69.33c.17-10.44.13-19.64-.19-27.32-3.49-84-30-128.17-30-128.17s-8.47,2.86-32.84,9.79c-16.7,4.73-23,26.07-25.3,39a1,1,0,0,0,0,.15A93,93,0,0,0,714.84,454.3Z" transform="translate(-234.17 -223.63)" fill="#323657"/><path d="M819.85,398.9a202.16,202.16,0,0,1,10.31,20.77c8.21,18.91,18.47,48.84,19.34,81.82.27,10.59,2.37,27.75,5.55,49.43h13.84a220.89,220.89,0,0,1,7.62-43c1.89-6.76,3.62-11.81,4.56-15,4.42-15.07-9.69-35.14-14.41-42.32S850.61,410.4,819.85,398.9Z" transform="translate(-234.17 -223.63)" fill="#323657"/><path d="M692.76,550.92H730c0-2.43.83-6.4,2.2-11.31C739,515.47,759,468.48,759,468.48s30-49.15,1.57-61.67-40.6,22.47-44.42,37.41a1,1,0,0,0,0,.15C715.15,448,698.24,512.65,692.76,550.92Z" transform="translate(-234.17 -223.63)" fill="#323657"/><path d="M1300,1251.68s-13-.19-17.65-5.22-12.81-9.54-15.43-10.82c-3.51-1.72-13.22-11.19-14.44-6.57s15.46,16.37,18.63,19.54-13.85,4.55-16.35,7.62,6.19,35.42,17.54,32.91,20.64-14,22.78-14,8.38-1.44,8.38-1.44Z" transform="translate(-234.17 -223.63)" fill="#eea886"/><path d="M1257.13,1254.91s-33.87,10.38-35.26,13.33-.45,5.09,2.77,4.28,33.15-8.91,33.15-8.91-37,20.32-38.67,22.35c-1,1.19.65,5.44,2.44,5.2s39.89-17.8,39.89-17.8-34.51,19.05-35.37,21.31c-.76,2,1.56,5.63,4.23,4.43s36-16.63,36-16.63-24,15.81-23.68,18.41c.23,1.6,1.49,5.31,7.54,1s21.58-12.63,21.58-12.63Z" transform="translate(-234.17 -223.63)" fill="#eea886"/><path d="M1371.19,1825.27s-10.87,16.32-26.11,19.84-30.25,9.13-30.36,18.79,44.06,15.42,61.5,5.68c26-14.53,28.67-10.15,31.56-17.41s-3.47-26.68-3.28-29C1404.73,1820.33,1371.19,1825.27,1371.19,1825.27Z" transform="translate(-234.17 -223.63)" fill="#353a3d"/><path d="M1372.87,1817.22s-2,7.88-1.68,8,34.34,4.24,33.31-2.09c-.84-5.13-2-10.7-2-10.7Z" transform="translate(-234.17 -223.63)" fill="#81807e"/><path d="M1585,1824.18s-7.75,15.62-21,20.93c-14.15,5.69-25.5,12.22-25.24,21.63s34.6,18.94,59.58.88c15.78-11.41,20.79-11.46,23.32-18.64s-4.4-25.86-4.31-28.11C1617.46,1818.08,1585,1824.18,1585,1824.18Z" transform="translate(-234.17 -223.63)" fill="#353a3d"/><path d="M1584.59,1816.08s.1,8,.39,8.1,33.2,2.88,32.36-3.31a50.87,50.87,0,0,0-3.19-10.86Z" transform="translate(-234.17 -223.63)" fill="#81807e"/><path d="M1463.94,1339.21s-43.22,166.24-59.67,204.67c-15.25,35.61-20.28,85.41-22.38,110.42-2.64,31.46-18.36,154-20.2,163.16s50.84,5.09,50.84,5.09,36.33-211.81,51.41-242.72c10.07-20.63,68.47-168.56,75.16-160s15,156.74,19.92,181.34,20.14,219,20.14,219,34,5,43-2.68c0,0,4.14-166,1-212.13-1.2-17.57,20.52-210.77-7.33-288.55C1601.13,1275.68,1463.94,1339.21,1463.94,1339.21Z" transform="translate(-234.17 -223.63)" fill="#2d3133"/><path d="M1704.68,1220c0,1.9-3.58,9.51-9.29,20.45-8.34-16.77-14.9-30.53-17.05-35.59-7-16.68-43.28-54.92-43.28-54.92a.45.45,0,0,1,0,.08.43.43,0,0,1,0,0,.06.06,0,0,0,0,0,1.42,1.42,0,0,0,0,.16q0,.13-.09.33c0,.06,0,.13-.05.2a.83.83,0,0,0,0,.15c-2,7.38-14.1,53.53-14.54,76.26-.49,24.74-6.92,70.51-6.92,70.51h0l-7.57,1.06-16.74,2.37-2,.29-4.87.68-44.41,6.28-15.75,2.22-2.13.3-9,1.27-24.87,3.51-6.34.9h0l-4.75.67-6.57.92h0c-.18-.25-6.39-8.78-5.43-27.72.61-12.23,2.08-35.21,1.47-56.53,0-.11,0-.22,0-.33,0-.27,0-.54,0-.81a2.53,2.53,0,0,1,0-.27v0c-.39-11.71-1.41-22.82-3.59-31.25a129.16,129.16,0,0,1-3.09-16.66l-.09-.77c-.12-1-.22-2-.31-2.91a146.76,146.76,0,0,1-.23-26.71l0,.06c-.45,1-3.69,12.91-7.94,27.63-7.18,24.89-17.23,57.78-21.52,59.36-6.23,2.3-107.12,32.3-128.91,35.38-2.52.35-4,.35-4.12-.1s-.2-.65-.31-1c-2.64-8.76-6.28-23.66-6.86-26.06l-.09-.34,3.9-1.17,109.79-33L1451,1069.63c1-.84,13.37-6.83,22.37-11.13,9.18-4.38,20.25-10.83,30.27-16.34,5.11-2.81,9.95-5.37,14.12-7.3l.65-.29h0l11.5-5.28h0l3-.29c9.64-.92,39.59-3.73,49.63-4.32.83-.06,1.52-.09,2.05-.1a8.41,8.41,0,0,1,1,0c1.27.07,7.44,2.23,15.56,5.33h0l.93.36,1.15.44c.7.27,1.42.54,2.14.83l4.46,1.75,1.58.63c16.24,6.47,34.85,14.47,39.27,17.66,2.92,2.1,12,19.31,22.57,40.61,13.58,43.69,30.8,110.57,31.34,127.07C1704.67,1219.52,1704.68,1219.77,1704.68,1220Z" transform="translate(-234.17 -223.63)" fill="#decbc4"/><path d="M1468.25,1318.21s-3.34,4-4.31,21c0,0,137.39-16.09,151.91-22.43,0,0,.57-18.73-2.51-19C1610,1297.37,1468.25,1318.21,1468.25,1318.21Z" transform="translate(-234.17 -223.63)" fill="#495055"/><path d="M1585.41,1019.89c-.43,21.65-42.18,33.49-42.18,33.49s-17.46-22-13.29-24.08c1.64-.83,2.31-4.11,2.51-7.79a75,75,0,0,0-.24-9.81c-.12-1.54-.24-2.52-.24-2.52s6-6.32,13.55-13.85c13.26-13.16,31.49-30,31.52-23.32a6.63,6.63,0,0,1-.15,1.28C1573.68,988.38,1585.41,1019.89,1585.41,1019.89Z" transform="translate(-234.17 -223.63)" fill="#eea886"/><path d="M1582,1301.05s3,19,3.25,23.93l6.36-1.27s-1.75-20.09-2.78-23.46Z" transform="translate(-234.17 -223.63)" fill="#353a3d"/><path d="M1479.71,1316s-2.41,17.26-2.46,23.78l6.72-.88s1.38-21.55,2.15-23.8Z" transform="translate(-234.17 -223.63)" fill="#353a3d"/><path d="M1569.33,988.18h0c-.09.13-1.86,2.79-4.88,6.6-6.41,8.1-18.46,21.39-32,26.73a75,75,0,0,0-.24-9.81,21.6,21.6,0,0,1-4.14-.51,128.93,128.93,0,0,1,9.07-13.34l8.38-2.52Z" transform="translate(-234.17 -223.63)" fill="#a77860"/><path d="M1577.34,972.31c-3.61,7.88-7,13.6-8,15.87h0a28.07,28.07,0,0,1-4.88,6.6c-6.88,7.44-19.67,17.26-32.24,16.92a21.6,21.6,0,0,1-4.14-.51c-5.08-1.11-11.07-3.48-14.37-10-26-51.2-7.19-93.06-7.19-93.06s71.21-20.22,82.36,1.3C1596.68,924.57,1585.83,953.77,1577.34,972.31Z" transform="translate(-234.17 -223.63)" fill="#eea886"/><path d="M1506.51,908.17s-6.61-.37-8.25-13,1.65-15.88,1.65-15.88,29.4-12.36,40-14,36.52-3.15,42.6,3.84c0,0,14.79-3.45,18.82,21.19,6.39,39.1-21.78,77.06-21.78,77.06s.24-25.54-5.37-28.93-10.45,4.67-10.45,4.67l-11.48,2.06s17.43-37.78-3.48-39.18S1518.48,910.36,1506.51,908.17Z" transform="translate(-234.17 -223.63)" fill="#252e3b"/><path d="M1564,933c1.1-11.26,21.36-15.55,20-3.76s-11.33,23.13-15.94,22.73S1563.17,941.58,1564,933Z" transform="translate(-234.17 -223.63)" fill="#eea886"/><path d="M1695.39,1240.45c-8.83,16.9-22.76,41.79-36.51,65.91,1.81,3.39,3.58,6.76,5.27,10.08a203,203,0,0,1,10.42,23.32c3.13,8.82,7.49,31.4-.85,35.6l-44,24.35s-.3-.86-.89-2.45c-1.45-4-4.61-12.44-9-23.42-.14-.36-.58-1.41-1.23-2.95l-3.58-8.4c-.65-1.51-1.32-3.1-2-4.74-.79-1.87-1.62-3.8-2.44-5.72l-3.49-8.16-5.34-12.46c-.15-.32-.29-.64-.44-1-1.43-3.1-2.9-6.22-4.39-9.32-2.31-4.82-4.69-9.61-7.12-14.29l-.74-1.43-1.3-2.46-.81-1.49-.18-.34-.33-.59c-12.7-23.27-27-42.72-31.58-71.26q-.66-4.12-1.26-8.21c-.66-4.53-1.27-9-1.82-13.38-.21-1.66-.42-3.3-.61-4.93-2.29-19-3.66-36-4.76-47.81-3.44-36.81,19-76.66,36.26-101.28a273.56,273.56,0,0,1,18.43-23.65l.09-.09.93.36,1.15.44c.7.27,1.42.54,2.14.83l4.46,1.75,1.58.63c16.7,6.57,51.85,16.28,56.28,19.46,2.55,1.84,8.26,18.64,14.86,39.85,13.58,43.69,21.64,109.57,22,126,0,.26,0,.51,0,.74C1704.68,1221.9,1701.1,1229.51,1695.39,1240.45Zm-66.78-8.22c0,8.2,2.66,17.61,6.75,27.62.11.25.21.51.31.76,2.82-6,5.47-11.82,7.85-17.17a0,0,0,0,0,0,0c6.54-14.7,11-26.16,11.28-30.7,1.62-29.14-19.76-62.69-19.76-62.69a.43.43,0,0,1,0,0,.06.06,0,0,0,0,0,1.42,1.42,0,0,0,0,.16l-.09.33c0,.06,0,.13-.05.2a.83.83,0,0,0,0,.15C1630.42,1168.28,1628.61,1232.23,1628.61,1232.23Z" transform="translate(-234.17 -223.63)" fill="#3c4145"/><path d="M1545.14,1342l125.26,56a14,14,0,0,0,18.55-7.15l34.29-77.36a14.11,14.11,0,0,0-7.12-18.61l-125.27-56a14,14,0,0,0-18.54,7.14L1538,1323.42A14.12,14.12,0,0,0,1545.14,1342Z" transform="translate(-234.17 -223.63)" fill="#b3a5a0"/><path d="M1518.12,1035.12s-5.87,19.64-13.47,68.66h0c-.26,1.65-.51,3.33-.77,5l-.09.59q-.26,1.71-.51,3.45c0,.14,0,.28-.07.41-.11.78-.23,1.57-.34,2.37-.29,1.93-.57,3.9-.86,5.91-3.39,23.86-8.14,64.47-12.71,105.46h0c-3.62,32.31-11.85,65.47-14.46,90.21,0,0,0,0,0,0a171.12,171.12,0,0,1-3.42,18.6c-.19.82-.38,1.66-.58,2.5-7.36,31.23-21.65,75.44-21.65,75.44L1445,1410l-12.33-11.42a10.09,10.09,0,0,1-2.77-10.36c6.84-22.14,30.08-100.52,34.34-155.63v0c-2.09-19.36-7.43-45.34-6.63-49.08,0,.13-.1.26-.14.4-2.45,6.83-5.16,14.26-7.9,21.49h0c-7.33,19.42-14.84,37.41-18,38.56-6.95,2.57-131.86,39.57-132.77,34.4-.09-.52-.19-1.07-.31-1.65s-.24-1.19-.37-1.82c-1.55-7.07-4.35-17.2-6.3-24-.29-1-.56-2-.81-2.8-.82-2.83-1.35-4.63-1.35-4.63l105.62-34.81,53.3-139.93c1.05-.84,14.65-8.19,23.65-12.49,9.38-4.48,21.24-10,31.76-14.89l13.76-6.36Z" transform="translate(-234.17 -223.63)" fill="#3c4145"/><path d="M1589.64,1083.64l-20.31,11.5L1578,1104l-23.11,125.25c-4.71-29.36-6.85-57.24-8.45-74.34-5.31-56.9,51.26-121.09,54.78-125,2.71,1,5.65,2.18,8.68,3.38Z" transform="translate(-234.17 -223.63)" fill="#51565c"/><path d="M1518.44,1034.57s-7.59,24.88-16.44,87c-3.39,23.86-8.14,64.47-12.72,105.46l-4.72-117.3,9.67-10.52-8.6-10.8,18.4-47.18,13.77-6.36Z" transform="translate(-234.17 -223.63)" fill="#51565c"/><path d="M1602.36,1030.34l-16.95-10.45s-.47,9.28-42.18,33.49l11.85,33.49Z" transform="translate(-234.17 -223.63)" fill="#f5e2d9"/><path d="M1532.14,1024.57s.66,10,11.09,28.81l-23.11,30.26-1.68-49.07Z" transform="translate(-234.17 -223.63)" fill="#f5e2d9"/><path d="M1543.3,1053.38s4.48,18,2.86,23c0,0-9.85,3.6-16.93-.9C1529.23,1075.51,1534.25,1062.92,1543.3,1053.38Z" transform="translate(-234.17 -223.63)" fill="#faa146"/><path d="M1520.14,1312.83c-2.51-12.7-.12-50.73,0-52.34l2.15.14c0,.39-2.47,39.36,0,51.78Z" transform="translate(-234.17 -223.63)" fill="#ad9f99"/><path d="M1537.68,1307s-20.22,2.43-26.9,4.1l.88,22.75,26.47-2.83Z" transform="translate(-234.17 -223.63)" fill="#69737a"/><path d="M1533.26,1073.89s-22.55,57.17-18.87,121.15c3.81,66.34,10.06,90.39,10.06,90.39l13.91,17.51,6.13-21.52s-18.66-84.57-6.62-166.87c2.19-14.92,5.43-43.18,5.43-43.18Z" transform="translate(-234.17 -223.63)" fill="#faa146"/><path d="M1601,1343.85s-4.83,9.72-9.67,11.34-11.89,9.51-11.89,9.51l34.06,18s9.07-17.81,9.47-29.14S1601,1343.85,1601,1343.85Z" transform="translate(-234.17 -223.63)" fill="#eea886"/><path d="M1597.77,1344.77l-2.26,4.55s21.64,15.88,27.47,16.9l2-6.07Z" transform="translate(-234.17 -223.63)" fill="#decbc4"/><path d="M1595.51,1345s16.22,13.47,29.88,19.67l61.2-107.75-39.06-21.44S1596.59,1336.87,1595.51,1345Z" transform="translate(-234.17 -223.63)" fill="#3c4145"/><path d="M1458.25,1154.42c-.75,15.35-.64,29-.64,29h0c0,.07,0,.49,0,1.17l-.09-.77c-2.45,6.83-5.16,14.26-7.9,21.49a231.48,231.48,0,0,1-.61-23.42c1.1-43,14.58-65.62,14.58-65.62C1460.45,1123.78,1459,1139.87,1458.25,1154.42Z" transform="translate(-234.17 -223.63)" fill="#2d3133"/><path d="M926.4,1012.52s.64-7.91-.29-11.6c-1.6-6.38.76-16.71-7.22-21.71s-30.95,16-32.76,21.82,6.78,15.85,24.74,24.24S926.4,1012.52,926.4,1012.52Z" transform="translate(-234.17 -223.63)" fill="#eea886"/><path d="M921.33,981.28a272.47,272.47,0,0,0-18-23.67c-9-10.5-21.58-22.27-24.24-20-4,3.4,7.39,11.86,15.59,22.87,7.54,10.14,4.34,9.42,4.34,9.42s.93.16-9.46-9.27C878.41,950.45,866,940,863.77,941.82c-2.74,2.22-2.89,2.73.55,7.08-2.52-2.07-3.45-1.67-4.42-.69-5,5.07,9,22.55,14.63,29.49-4.33-5.3-8.08-8.73-9.16-3.63-1.23,5.84,19.78,29.64,26.48,38.9C899.16,1023.06,921.33,981.28,921.33,981.28Z" transform="translate(-234.17 -223.63)" fill="#eea886"/><path d="M1189.89,1822.3s-21.85,13-31.74,17.79-48.33,6.2-52.13,9.83-2.41,15.16,4,16.33,53.1,5.42,68.69,1.76,44.74,2.5,51.2.3,2.29-37.15-.21-45S1189.89,1822.3,1189.89,1822.3Z" transform="translate(-234.17 -223.63)" fill="#181929"/><path d="M1188.07,1808l1.82,14.29s29.21,5.49,38.07,1l-2.2-14.85Z" transform="translate(-234.17 -223.63)" fill="#22243b"/><path d="M1070.89,1320c.31,9.9,2.1,31.37,4.19,53.91.47,5,1,10.07,1.44,15.08,2.92,30.34,5.86,58.4,5.86,58.4,3.69,24.15,11.3,66.08,19.81,97.78h0c2.45,9.15,5,17.44,7.51,24.21,2.46,6.6,4.94,11.74,7.34,14.83,18.1,23.21,59.6,229,59.6,229l56.66-.43s-12.46-139.37-25-174.69c-14-39.46-38.24-92.63-32.21-130.69,3.77-23.88,8.63-99.89,8.63-99.89s4.74-85.41-17.51-148C1161.67,1243.9,1070.89,1320,1070.89,1320Z" transform="translate(-234.17 -223.63)" fill="#292c47"/><path d="M1030.68,1827.65s-21.7,13.23-31.53,18.17-48.25,6.78-52,10.45-2.22,15.19,4.16,16.29,53.15,4.78,68.7.93,44.77,2,51.2-.32,1.84-37.17-.75-45S1030.68,1827.65,1030.68,1827.65Z" transform="translate(-234.17 -223.63)" fill="#181929"/><path d="M1028.69,1813.38l2,14.27s29.27,5.13,38.07.51l-2.37-14.82Z" transform="translate(-234.17 -223.63)" fill="#22243b"/><path d="M1096.41,1609.28c1.48-45.52,5.48-75.76,17.15-102.06,9.8-22.08,18.18-91.44,18.18-91.44s26.56-81.27,21.17-147.49c-1.34-16.53-104,25-104,25-2.24,9.64-9.11,40-11.54,62.48-13.9,128.57-8.7,212.33-8.7,212.33,7.94,28.39-12.12,251.74-12.12,251.74h57.77s15.15-79.45,16.74-128.87C1091.08,1691,1097,1617.16,1096.41,1609.28Z" transform="translate(-234.17 -223.63)" fill="#292c47"/><path d="M1097.7,1020.25s-26.91,44.3-34.78,69-1.53,96.6-2.92,111c-4.31,44.82-10.59,94.17-10.59,94.17l90.22,57.86a896.37,896.37,0,0,0,30.32-85.27c14.12-47.29,15.26-89.87,15.13-118.31-.42-89.24-48.46-139.63-48.46-139.63Z" transform="translate(-234.17 -223.63)" fill="#cfbeb6"/><path d="M1064.54,901.42s-18.5,19.88-13.27,25.11c4.31,4.32-12.7,24.13-15.12,27.46s7.56,8.84,9.2,11.83.67,34.17,9.24,37.37,51.8-.18,65.54-8.6,35.89-57,34.3-80.32S1097.08,866.75,1064.54,901.42Z" transform="translate(-234.17 -223.63)" fill="#eea886"/><path d="M1082,996.46s.31,2.65.74,6.75c.16,1.73.37,3.69.55,5.83.11,1.27.21,2.63.34,4,0,.37.08.74.11,1.12,0,.63.1,1.27.16,1.93.21,3,.42,6.09.58,9.17.39,7.92.45,15.5-.4,19.71-2.27,11.55,47.29-37.2,47.29-37.2a572.58,572.58,0,0,1-2.16-80.3C1131.31,885,1082,996.46,1082,996.46Z" transform="translate(-234.17 -223.63)" fill="#eea886"/><path d="M1060.74,905.78S1052,885.05,1079,870.66c31.77-16.94,65.46,25.6,69.93,28.1s24.79,25.46,4.91,55.89c-25.09,38.39-23.77,37.11-23.77,37.11s-2.51-28.33-2.35-33.79c.3-10-25.8-11.17-25.8-11.17s10.72-14.33-1.19-20.75S1074.87,904.38,1060.74,905.78Z" transform="translate(-234.17 -223.63)" fill="#3a3f47"/><path d="M1115.62,943.17c1.9-2.68,8.87-14.51,17.83-4.12s-15.07,29.82-17.06,29.63S1099.63,965.72,1115.62,943.17Z" transform="translate(-234.17 -223.63)" fill="#eea886"/><path d="M1044.48,1313.57s4.49-21.19,5.36-24.36l132,22-1.35,17.13S1085.37,1322.66,1044.48,1313.57Z" transform="translate(-234.17 -223.63)" fill="#23263d"/><path d="M1193.54,1220.2s-20.28,87.9,11.47,190.43c3.88,12.52-87.88-1.94-87.88-1.94Z" transform="translate(-234.17 -223.63)" fill="#faa146"/><path d="M1077,1402.25s65.17,14.36,83.48,7.87c0,0,26.63-97.29,35.93-196q1.06-11.44,1.82-22.85v0c5.18-80.33-15.18-161.82-61.58-182.09-1.31.89-66.66,58.74-65.42,111.69.09,3.58.13,7.18.16,10.78q.06,9.76-.15,19.54h0c-.41,20.14-1.65,40.23-3.43,59.75-.17,2-.37,4.06-.57,6.08-.31,3.28-.65,6.53-1,9.77q-.71,6.46-1.46,12.82C1054.22,1327.94,1077,1402.25,1077,1402.25Z" transform="translate(-234.17 -223.63)" fill="#faa146"/><path d="M1079.66,1058.94a730.36,730.36,0,0,0-17,110.2c-3.92,51.37-9.15,87.7-9.15,87.7l-7.83,25.43-3.22-24.52s2.87-66.3,6.7-93.27c3.87-27.2,5.56-61.72,27.21-106.5Z" transform="translate(-234.17 -223.63)" fill="#d44040"/><path d="M1081,1059a7.22,7.22,0,0,1-3.58,1.74c-2.09.31-5.09-3,5.62-17.24Z" transform="translate(-234.17 -223.63)" fill="#d44040"/><path d="M1130.84,1001.79s-30.35,28.7-48.41,35l-3.44,27.49,57.63-55.18Z" transform="translate(-234.17 -223.63)" fill="#eddad3"/><path d="M1110.46,1112.88c12-4.27,61.68-28.49,48.45-56.78s-47.3-13.24-73-1.73c-26.84,12-90.22,49-95.23,45.59s-26.93-35-30.9-42-27.88-51.88-30.14-55.26-37,26-37,26,62.41,111.27,79.2,129S1110.46,1112.88,1110.46,1112.88Z" transform="translate(-234.17 -223.63)" fill="#faa146"/><path d="M1102.19,1545.12h0c2.45,9.15,5,17.44,7.51,24.21h0L1129.46,1451C1124.47,1462.21,1102.19,1545.12,1102.19,1545.12Z" transform="translate(-234.17 -223.63)" fill="#181929"/><path d="M1071.22,1151.14l57.18-46.89c-15.14,8.15-52.37,25.22-57,27.35Q1071.43,1141.36,1071.22,1151.14Z" transform="translate(-234.17 -223.63)" fill="#8f5c28"/><path d="M1082.78,1003.21c.16,1.73.37,3.69.55,5.83.11,1.27.21,2.63.34,4,18.95-1.27,33.6-16.42,34.49-17.35C1110.46,1001.84,1082.78,1003.21,1082.78,1003.21Z" transform="translate(-234.17 -223.63)" fill="#a77860"/><g opacity="0.95"><polygon points="106.03 343.47 76.01 343.47 85.2 324.33 115.22 324.33 106.03 343.47" fill="url(#linear-gradient-13)"/><polygon points="120.08 343.47 112.92 343.47 122.11 324.33 129.27 324.33 120.08 343.47" fill="url(#linear-gradient-14)"/><polygon points="223.8 320.68 102.24 320.68 106.27 311.11 227.84 311.11 223.8 320.68" fill="url(#linear-gradient-15)"/></g><path d="M1110.84,239.21h45.9a2.81,2.81,0,0,0,2.81-2.81v-10a2.81,2.81,0,0,0-2.81-2.81h-45.9a2.81,2.81,0,0,0-2.81,2.81v10A2.81,2.81,0,0,0,1110.84,239.21Z" transform="translate(-234.17 -223.63)" fill="url(#linear-gradient-16)"/><path d="M1110.84,276.59h45.9a2.81,2.81,0,0,0,2.81-2.82v-9.95a2.81,2.81,0,0,0-2.81-2.82h-45.9a2.81,2.81,0,0,0-2.81,2.82v9.95A2.81,2.81,0,0,0,1110.84,276.59Z" transform="translate(-234.17 -223.63)" fill="url(#linear-gradient-17)"/><path d="M1110.84,314h45.9a2.82,2.82,0,0,0,2.81-2.82V301.2a2.81,2.81,0,0,0-2.81-2.82h-45.9a2.81,2.81,0,0,0-2.81,2.82v9.95A2.82,2.82,0,0,0,1110.84,314Z" transform="translate(-234.17 -223.63)" fill="url(#linear-gradient-18)"/><path d="M1074.91,239.21h9a2.81,2.81,0,0,0,2.8-2.81v-10a2.81,2.81,0,0,0-2.8-2.81h-9a2.81,2.81,0,0,0-2.81,2.81v10A2.81,2.81,0,0,0,1074.91,239.21Z" transform="translate(-234.17 -223.63)" fill="url(#linear-gradient-19)"/><path d="M1074.91,276.59h9a2.81,2.81,0,0,0,2.8-2.82v-9.95A2.81,2.81,0,0,0,1084,261h-9a2.81,2.81,0,0,0-2.81,2.82v9.95A2.81,2.81,0,0,0,1074.91,276.59Z" transform="translate(-234.17 -223.63)" fill="url(#linear-gradient-20)"/><path d="M1074.91,314h9a2.82,2.82,0,0,0,2.8-2.82V301.2a2.81,2.81,0,0,0-2.8-2.82h-9a2.81,2.81,0,0,0-2.81,2.82v9.95A2.82,2.82,0,0,0,1074.91,314Z" transform="translate(-234.17 -223.63)" fill="url(#linear-gradient-21)"/><polygon points="1072.09 899.46 1018.2 899.46 1034.69 865.11 1088.58 865.11 1072.09 899.46" fill="url(#linear-gradient-22)"/><polygon points="1097.31 899.46 1084.46 899.46 1100.96 865.11 1113.8 865.11 1097.31 899.46" fill="url(#linear-gradient-23)"/></svg>