<svg id="Layer_1" data-name="Layer 1" xmlns="http://www.w3.org/2000/svg" xmlns:xlink="http://www.w3.org/1999/xlink" viewBox="0 0 282.98 312.99"><defs><mask id="mask" x="0" y="281.93" width="282.98" height="31.07" maskUnits="userSpaceOnUse"><g transform="translate(0 -0.01)"><g id="mask-2"><polygon id="path-1" points="0 281.94 282.98 281.94 282.98 313 0 313 0 281.94" fill="#fff" fill-rule="evenodd"/></g></g></mask><mask id="mask-2-2" x="158.76" y="0" width="2" height="19.88" maskUnits="userSpaceOnUse"><g transform="translate(0 -0.01)"><g id="mask-4"><polygon id="path-3" points="158.76 0.01 160.76 0.01 160.76 19.89 158.76 19.89 158.76 0.01" fill="#fff" fill-rule="evenodd"/></g></g></mask></defs><title>signup</title><g id="Page-1"><g id="Group-109"><path id="Fill-1" d="M107.26,140.93c-3.34,3.15-4.61,8.06-1.43,11.85a9.42,9.42,0,0,0,12.53,1.48c9-6.86-.39-19.53-10.12-16.91a1.59,1.59,0,0,0,.42,3.12c2.85.16,5.9.27,8.17,2.23a5.78,5.78,0,0,1,.5,8.12c-5.31,6.43-14.53-3-9-8.79a.78.78,0,0,0-1.11-1.1" transform="translate(0 -0.01)" fill="#7cabff" fill-rule="evenodd"/><path id="Fill-3" d="M201,152.31c1.19,4.56,2.5,9.07,3.86,13.58a1.36,1.36,0,0,0,2.23.79c3.54-2.49,7.1-4.93,10.46-7.69a1.33,1.33,0,0,0-.13-2.05c-3.94-2.79-9.26-6.91-14.26-6.94-1.27,0-2.16,1.84-.87,2.61,2,1.2,4.43,1.63,6.59,2.55a35.5,35.5,0,0,1,7.14,3.94l.15-2.25c-3.76,2.39-7.3,5.07-10.87,7.74l2.11.43c-1.53-4.45-3.09-8.87-4.78-13.26a.87.87,0,0,0-1.63.55" transform="translate(0 -0.01)" fill="#ff7081" fill-rule="evenodd"/><path id="Fill-5" d="M226.41,174.89A107.52,107.52,0,0,0,242.26,166c1.79-1.27,0-3.73-1.87-2.76a103.38,103.38,0,0,0-15,9.69c-.93.71-.24,2.56,1,2" transform="translate(0 -0.01)" fill="#fbc580" fill-rule="evenodd"/><path id="Fill-7" d="M26,192.91a96.79,96.79,0,0,0-4.75-16.85,1.68,1.68,0,0,0-3.18,1,96.32,96.32,0,0,0,5.73,16.23c.46,1,2.45.86,2.2-.42" transform="translate(0 -0.01)" fill="#ff957e" fill-rule="evenodd"/><path id="Fill-9" d="M43.88,139.4l-.34-.3a3.85,3.85,0,1,0-5.45,5.43l.3.35a3.92,3.92,0,0,0,5.49,0c1.35-1.47,1.63-4,0-5.48" transform="translate(0 -0.01)" fill="#241352" fill-rule="evenodd"/><path id="Fill-11" d="M187,293.19s-57.07,13.23-80-9.62L115.2,229c2.5-15.69,1-45.87,13.06-56.57a20.81,20.81,0,0,1,4.58-3.11c8.46-4.07,23.5-6.26,37.95-6.32,17.54-.07,35.6,13.16,40.21,30L192,237.3Z" transform="translate(0 -0.01)" fill="#ff7081" fill-rule="evenodd"/><path id="Fill-13" d="M182.34,199.78s25.6,49,12.89,51.58c-41.83,8.57-66.1,15.61-66.1,15.61L127,283.09c.62,2.44,84.61.33,94.56-10.87,7-7.91,16.36-26.19-3.51-65.76L212,193Z" transform="translate(0 -0.01)" fill="#ffafa7" fill-rule="evenodd"/><path id="Fill-15" d="M135,172.91,71.17,197.35l-2-33.12L55.5,159s-19.82,53.16,5,63.06,52.71-8.39,52.71-8.39Z" transform="translate(0 -0.01)" fill="#ffafa7" fill-rule="evenodd"/><path id="Fill-17" d="M142,166c-22,7.05-35.07,15.32-66,28.32L91.88,230l27.38-8.86Z" transform="translate(0 -0.01)" fill="#ff7081" fill-rule="evenodd"/><polyline id="Fill-19" points="179.01 192.4 194.98 229.99 231 223.33 206.73 180.99 178 192.4" fill="#ff7081" fill-rule="evenodd"/><path id="Fill-21" d="M159.43,217.73c7.73-.4,15.36-.09,23.08,0a.48.48,0,1,0,0-1,120.26,120.26,0,0,0-23.08.1c-.57.05-.58.89,0,.85" transform="translate(0 -0.01)" fill="#002c68" fill-rule="evenodd"/><path id="Fill-23" d="M193.68,174c-26,2.37-8.2,41-1.55,52.72a.58.58,0,0,0,1-.59c-6.62-11.82-24.32-47.79.64-51.49.36,0,.28-.67-.09-.64" transform="translate(0 -0.01)" fill="#002c68" fill-rule="evenodd"/><path id="Fill-25" d="M121.33,196.24A210.79,210.79,0,0,0,115,235.52c0,.54.91.68,1,.13,1.92-13.1,3.85-26.16,6-39.23.07-.42-.55-.61-.66-.18" transform="translate(0 -0.01)" fill="#002c68" fill-rule="evenodd"/><path id="Fill-27" d="M183.3,125q.6-8.32,1.21-16.65c4.37-1.23,6.65-6.81,4.9-11s-6.7-6.54-11.2-5.9c2.83-1.93,2.62-6.53.29-9s-6-3.33-9.42-3.46-6.9.28-10.28-.34c-3-.56-5.93-1.92-8.94-1.54s-5.91,3.76-4.28,6.33c-4.36-.64-9.07-1.22-12.94.88s-5.81,8-2.48,10.93c-2.2,1.11-2.75,4.28-1.51,6.41a7.7,7.7,0,0,0,6.22,3.42,22.61,22.61,0,0,0,7.28-1.06" transform="translate(0 -0.01)" fill="#241352" fill-rule="evenodd"/><path id="Fill-29" d="M182.44,114.26l-.86,11.49s9.68,1.32,6.93,10.23-9.39,5-9.39,5-1.66,22.83-24.85,15.59c-18.46-5.76-17.33-29.87-15-50.42a13.65,13.65,0,0,1,16.17-11.9L169.4,97a16.29,16.29,0,0,1,13,17.26" transform="translate(0 -0.01)" fill="#ffafa7" fill-rule="evenodd"/><path id="Fill-31" d="M181,136l-6.3,33.15a13.45,13.45,0,0,1-16.36,10.48,13.3,13.3,0,0,1-10.13-15.26l3.42-19Z" transform="translate(0 -0.01)" fill="#ffafa7" fill-rule="evenodd"/><path id="Fill-33" d="M155,136.09s.1.48-.57.83-1.82-.39-2.11-1.56a11.49,11.49,0,0,1-.26-3.91c.08-1.49.15-3,.23-4.62.4-6.55.95-11.85,1.25-11.83s.22,5.35-.17,11.9c-.11,1.6-.21,3.13-.32,4.62a13.1,13.1,0,0,0,0,3.61c.17,1,.83,1.44,1.27,1.36s.6-.46.68-.4" transform="translate(0 -0.01)" fill="#241352" fill-rule="evenodd"/><path id="Fill-35" d="M147,154a28,28,0,0,1,3.23,1.34,23.47,23.47,0,0,0,16.46.3,29.38,29.38,0,0,1,3.3-1.22c.08.09-.94,1-3,1.87a20.88,20.88,0,0,1-8.62,1.69,20.65,20.65,0,0,1-8.53-2c-2-1-3-1.88-2.87-2" transform="translate(0 -0.01)" fill="#241352" fill-rule="evenodd"/><path id="Fill-37" d="M152,140.79c.13-.1.67.36,1.68.75a6.58,6.58,0,0,0,4.11.27,5.81,5.81,0,0,0,3.17-2.33c.56-.85.7-1.5.87-1.48s.31.71-.14,1.78a5.47,5.47,0,0,1-3.55,3,6.41,6.41,0,0,1-4.85-.6c-1.07-.64-1.4-1.31-1.29-1.38" transform="translate(0 -0.01)" fill="#241352" fill-rule="evenodd"/><path id="Fill-39" d="M182,136.79c0-.16.57-.24,1.21-.64a1.49,1.49,0,0,0,.7-.9c.1-.41,0-.8-.34-.9a.53.53,0,0,0-.58.08l-.93-.48c.87-1.8,1.66-3,1.89-2.94s-.17,1.51-.93,3.36l-.93-.48a1.53,1.53,0,0,1,1.87-.56,1.58,1.58,0,0,1,1,1,1.9,1.9,0,0,1-.06,1.21,2.15,2.15,0,0,1-1.33,1.28c-1,.31-1.54.07-1.54-.06" transform="translate(0 -0.01)" fill="#241352" fill-rule="evenodd"/><path id="Fill-41" d="M164,114.7c-.1-.26.93-.87,2.22-.48s1.93,1.47,1.73,1.64-.94-.35-2-.63-1.92-.25-2-.53" transform="translate(0 -0.01)" fill="#241352" fill-rule="evenodd"/><path id="Fill-43" d="M143,110.18c-.13-.25,1-1,2.58-.86s2.56,1.08,2.39,1.3-1.19-.16-2.48-.26-2.38.09-2.49-.18" transform="translate(0 -0.01)" fill="#241352" fill-rule="evenodd"/><path id="Fill-45" d="M181,126.38c-6.49-6.45-8.39-17.18-10.15-26.24A22.33,22.33,0,0,1,149.64,103a34.73,34.73,0,0,1-7.55,6.72,3.35,3.35,0,0,1-2.67.75c-1.09-.33-1.57-1.6-1.83-2.73a19.76,19.76,0,0,1,.38-11,13.06,13.06,0,0,1,7.22-7.89c3.62-1.43,7.7-.81,11.47.19a63.13,63.13,0,0,1,16.19,6.82c5,3,9.72,6.88,11.83,12.34s2.09,16-3,18.81" transform="translate(0 -0.01)" fill="#241352" fill-rule="evenodd"/><path id="Fill-47" d="M165.88,123c-.29,0-.46-.71-.4-1.53s.35-1.49.64-1.47.47.71.4,1.53-.35,1.49-.64,1.47" transform="translate(0 -0.01)" fill="#241352" fill-rule="evenodd"/><path id="Fill-49" d="M146.88,121c-.29,0-.46-.71-.4-1.53s.35-1.49.64-1.47.47.71.4,1.53-.35,1.49-.64,1.47" transform="translate(0 -0.01)" fill="#241352" fill-rule="evenodd"/><path id="Fill-51" d="M54,160.53s2.83-17.46,6.2-17.28,10.14,0,10.14,0,.56-16.61,2.44-14,2.46,25-4.77,35.72Z" transform="translate(0 -0.01)" fill="#ffafa7" fill-rule="evenodd"/><path id="Fill-53" d="M129,267s-29.57,5.26-29,9.17a28.27,28.27,0,0,0,2.65,7.83l26.34-.63Z" transform="translate(0 -0.01)" fill="#ffafa7" fill-rule="evenodd"/><polygon id="Fill-55" points="162 284.68 161.77 280.51 99.39 276.71 78.47 220.99 10 224.74 33.36 284.99 162 284.68" fill="#3383cd" fill-rule="evenodd"/><path id="Fill-57" d="M48,251.27A5,5,0,1,0,52.73,246,5,5,0,0,0,48,251.27" transform="translate(0 -0.01)" fill="#fff" fill-rule="evenodd"/><path id="Fill-59" d="M46,251.38A7,7,0,1,0,52.62,244,7,7,0,0,0,46,251.38" transform="translate(0 -0.01)" fill="#fff" fill-rule="evenodd"/><g id="Group-63"><g mask="url(#mask)"><path id="Fill-61" d="M0,285.19l267.32-3.26L283,290S77.76,344.86,0,285.19" transform="translate(0 -0.01)" fill="#b3cfe5" fill-rule="evenodd"/></g></g><path id="Fill-64" d="M158,25.06s-13.58.67-14,15.07c0,0,.23,7.87,4.53,10.79S152.6,57,152.6,57h11.31s-.45-4,1.36-6.3,6.34-7,5.66-14S165.05,24.38,158,25.06" transform="translate(0 -0.01)" fill="#ffbc7a" fill-rule="evenodd"/><path id="Fill-66" d="M152.46,60.67c4-.18,8,.25,12,0,.57,0,.77-.9.14-1-3.86-.78-8.27-.35-12.15.08-.6.06-.63,1,0,.92" transform="translate(0 -0.01)" fill="#6f35a5" fill-rule="evenodd"/><path id="Fill-68" d="M154.49,64.69c1.65-.09,3.32-.16,5-.14s3.34.27,5,.16a.52.52,0,0,0,.15-1c-3.18-.77-7-.32-10.25.1-.55.07-.42.94.14.91" transform="translate(0 -0.01)" fill="#6f35a5" fill-rule="evenodd"/><path id="Fill-70" d="M155.44,66.27c1.32.1,2.68.48,4,.45a.6.6,0,0,0,.15-1.16,12.3,12.3,0,0,0-4.15-.21.46.46,0,0,0,0,.92" transform="translate(0 -0.01)" fill="#6f35a5" fill-rule="evenodd"/><path id="Fill-72" d="M156.11,56.35c.33-4.07-1.09-8.58-1.8-12.58l-1.23.51c.59.94,1.57,3.67,3.09,3.57s2.14-2.81,2.36-3.91h-1.35c.3,1.26.34,4.29,2.37,4,1.73-.25,2.89-2.73,3.41-4.09l-1.4-.38c-1,4-1.54,9-.5,13.05a.69.69,0,0,0,1.35-.18c-.13-4.22-.74-8.35.55-12.49.28-.89-1.06-1.21-1.4-.38-.19.47-1.3,3.15-2.35,2.8-.27-.09-.62-2.47-.68-2.7-.16-.62-1.22-.67-1.35,0s-.5,3.05-1.49,2.38c-.58-.38-1.09-1.76-1.45-2.34a.67.67,0,0,0-1.23.5c.65,4,.83,8.66,2.48,12.4.14.32.6.11.62-.17" transform="translate(0 -0.01)" fill="#6f35a5" fill-rule="evenodd"/><path id="Fill-74" d="M115.63,52c6.34-1.72,12.89-3.2,19.08-5.28.49-.16.31-.8-.22-.69-6.46,1.37-12.8,3.4-19.14,5.13a.44.44,0,1,0,.28.84" transform="translate(0 -0.01)" fill="#ffbc7a" fill-rule="evenodd"/><path id="Fill-76" d="M123.54,33.69a119.17,119.17,0,0,0,12-.33.48.48,0,1,0,0-1c-3.93-.27-8,.13-12,.25a.52.52,0,1,0,0,1" transform="translate(0 -0.01)" fill="#ffbc7a" fill-rule="evenodd"/><path id="Fill-78" d="M141.81,27c-4.41-3.92-8.63-8.81-13.66-11.92-.78-.48-1.52.6-1,1.26,3.86,4.46,9.27,7.77,13.81,11.48.56.46,1.36-.32.8-.82" transform="translate(0 -0.01)" fill="#ffbc7a" fill-rule="evenodd"/><path id="Fill-80" d="M152,21.71c0-1.31-.9-2.56-1.49-3.65a20.57,20.57,0,0,0-2.25-3.84A.74.74,0,0,0,147,15a19.64,19.64,0,0,0,2.18,3.9c.64,1.06,1.26,2.54,2.36,3.09a.29.29,0,0,0,.42-.26" transform="translate(0 -0.01)" fill="#ffbc7a" fill-rule="evenodd"/><g id="Group-84"><g mask="url(#mask-2-2)"><path id="Fill-82" d="M160.53,19.29a142.49,142.49,0,0,0-.26-18.6c-.1-.9-1.22-.92-1.28,0a140.86,140.86,0,0,0,.42,18.6.56.56,0,1,0,1.12,0" transform="translate(0 -0.01)" fill="#ffbc7a" fill-rule="evenodd"/></g></g><path id="Fill-85" d="M167,21.75a51.21,51.21,0,0,0,4-6.69.7.7,0,0,0-1.19-.73,51.5,51.5,0,0,0-3.67,6.88.52.52,0,0,0,.89.54" transform="translate(0 -0.01)" fill="#ffbc7a" fill-rule="evenodd"/><path id="Fill-87" d="M173.59,26a92.4,92.4,0,0,0,8.23-4.21c2.67-1.46,5.66-2.72,8-4.69a.62.62,0,0,0-.6-1c-2.73.88-5.19,2.62-7.67,4-2.81,1.61-5.7,3.13-8.33,5-.41.3-.18,1.13.38.9" transform="translate(0 -0.01)" fill="#ffbc7a" fill-rule="evenodd"/><path id="Fill-89" d="M175.45,34.67c2.37.75,6.45.2,8.3-1.41.64-.55-.05-1.37-.81-1.25-1.27.2-2.44.81-3.7,1.07s-2.54.26-3.79.5a.56.56,0,0,0,0,1.09" transform="translate(0 -0.01)" fill="#ffbc7a" fill-rule="evenodd"/><path id="Fill-91" d="M177.48,45.17C185.56,47,193.9,49.05,202.16,50a.77.77,0,0,0,.24-1.52c-7.92-2.11-16.42-3.2-24.56-4.46-.83-.13-1.21,1-.36,1.16" transform="translate(0 -0.01)" fill="#ffbc7a" fill-rule="evenodd"/><path id="Fill-93" d="M60.23,188.24c.28-1.81.22-3.53,1.25-5.13,2.05-3.18,5-2.38,7.78-1s5.57,2.28,8.69,1c4.88-2.08,7.17-9.33,2.52-12.74-1.51-1.1-3,.72-2.79,2.11.28,2,1.26,4.1-.44,5.78-2.26,2.24-4.92.35-7.18-.65a9.48,9.48,0,0,0-7.56-.32c-4.33,1.73-7.48,7.53-4,11.44a1.07,1.07,0,0,0,1.76-.46" transform="translate(0 -0.01)" fill="#7e2e84" fill-rule="evenodd"/><path id="Fill-95" d="M103.89,243.67a138.5,138.5,0,0,0,18.56,0c2.23-.18,2-2.59-.21-2.66a136.22,136.22,0,0,0-18.18.86c-1.19.13-1.55,1.69-.17,1.77" transform="translate(0 -0.01)" fill="#7e2e84" fill-rule="evenodd"/><path id="Fill-97" d="M209.15,87.41C208.34,89,211,129.88,211,129.88l20-1.67L228.66,139l9.77-11.1L258,125.63,256.81,86Z" transform="translate(0 -0.01)" fill="#b3cfe5" fill-rule="evenodd" opacity="0.4"/><path id="Fill-99" d="M220,105.41,224.23,120l5.93-1.15-.58-2.93,1.68-1,3.18,3.11,10-1.94,1.3-3.8-2.86-.64,3.69-1.22-.8-4.07-3.19.27,4.38-1.18-1-5.06-10.2,2s.66-7.06-2.35-9.36l-2.31.45a12.42,12.42,0,0,1,.71,3.58,71.52,71.52,0,0,1-2.08,7.68l-3.13,1.45-.75-2Z" transform="translate(0 -0.01)" fill="#fff" fill-rule="evenodd"/><polygon id="Fill-101" points="14 77.99 17.41 118.68 92.23 118.68 96.37 132.99 100.74 117.29 115 116.47 108.43 80.02 14 77.99" fill="#b3cfe5" fill-rule="evenodd" opacity="0.4"/><path id="Fill-103" d="M23.6,92.84A643.71,643.71,0,0,1,100.31,94c.92.07.92-1.2,0-1.26a635.42,635.42,0,0,0-76.71-1,.55.55,0,1,0,0,1.1" transform="translate(0 -0.01)" fill="#fff" fill-rule="evenodd"/><path id="Fill-105" d="M25.6,101.84A643.68,643.68,0,0,1,102.31,103c.92.07.92-1.2,0-1.27a637.45,637.45,0,0,0-76.71-1,.55.55,0,1,0,0,1.1" transform="translate(0 -0.01)" fill="#fff" fill-rule="evenodd"/><path id="Fill-107" d="M25.6,108.18c17.31.55,34.42-.64,51.71.82.92.07.92-1.29,0-1.35C60,106.54,42.9,107.25,25.6,107a.59.59,0,1,0,0,1.17" transform="translate(0 -0.01)" fill="#fff" fill-rule="evenodd"/></g></g></svg>